SplineFontDB: 3.0
FontName: Nepomuk-Italic
FullName: Nepomuk Italic
FamilyName: Nepomuk
Weight: Italic

StartChar: E
Encoding: 69 69 0
Width: 687
VWidth: 0
Flags: W
HStem: 0 36<0 78.584 194.941 388.483> 337 35<277 364.198> 644 36<165 243.232 361.002 553.547>
VStem: 382 33<175 199.903> 479 33<487.097 512> 578 30<256.388 280> 610 29<445 480.093>
LayerCount: 5
Fore
SplineSet
165 680 m 1
 341 680 513 680 687 680 c 1
 639 445 l 5
 610 445 l 1
 619 571 586 644 482 644 c 2
 419 644 l 2
 389 644 349.908203125 628.025390625 343 604 c 2
 277 372 l 1
 340 372 l 2
 400 372 446.036132812 424.7421875 479 512 c 1
 512 512 l 1
 415 175 l 1
 382 175 l 1
 402.884765625 279.422851562 380 337 317 337 c 2
 267 337 l 1
 192 79 l 2
 185.083007812 54.9765625 205 36 231 36 c 2
 304 36 l 2
 447 36 521 159 578 280 c 1
 608 280 l 1
 523 0 l 1
 -10 0 l 1
 0 35 l 1
 30 35 l 2
 65 35 84 50 94 85 c 2
 241 595 l 2
 251 630 240 645 205 645 c 2
 155 645 l 1
 165 680 l 1
EndSplineSet
Validated: 33
EndChar

StartChar: s
Encoding: 115 115 1
Width: 468
VWidth: 0
Flags: HMW
LayerCount: 5
Fore
SplineSet
116 54 m 0
 116 35 139 18 178 18 c 3
 235 18 288 48 288 98 c 3
 288 138 257 171 200 211 c 0
 154 243 104 278 104 338 c 3
 104 416 203 462 291 462 c 3
 358 462 418 427 418 372 c 3
 418 336 392 314 365 314 c 0
 337 314 314 333 314 361 c 0
 314 389 339 389 339 412 c 0
 339 425 319 434 290 434 c 3
 234 434 190 406 190 364 c 3
 190 334 229 298 263 274 c 0
 324 231 378 184 378 126 c 3
 378 54 288 -12 182 -12 c 3
 109 -12 30 42 30 98 c 0
 30 139 57 160 86 160 c 0
 114 160 138 140 138 111 c 0
 138 79 116 71 116 54 c 0
EndSplineSet
Validated: 1
Layer: 2
SplineSet
118 58 m 4
 118 39 140 25 179 25 c 7
 227 25 288 48 288 98 c 7
 288 138 257 171 200 211 c 4
 154 243 104 278 104 338 c 7
 104 416 202 458 290 458 c 7
 357 458 418 427 418 372 c 7
 418 336 392 314 365 314 c 4
 337 314 314 333 314 361 c 4
 314 389 336 387 336 410 c 4
 336 423 315 427 289 427 c 7
 233 427 190 406 190 364 c 7
 190 334 229 298 263 274 c 4
 324 231 378 184 378 126 c 7
 378 54 289 -8 183 -8 c 7
 110 -8 30 42 30 98 c 4
 30 139 57 160 86 160 c 4
 114 160 138 140 138 111 c 4
 138 79 118 75 118 58 c 4
EndSplineSet
EndChar

StartChar: e
Encoding: 101 101 2
Width: 484
VWidth: 0
Flags: HMW
LayerCount: 5
Fore
SplineSet
303 462 m 0
 388 462 434 405 434 351 c 0
 434 278 354 199 216 199 c 0
 197 199 179 201 157 204 c 1
 148 177 142 148 142 123 c 0
 142 77 158 32 212 32 c 0
 264 32 314 66 362 148 c 9
 392 138 l 17
 352 48 273 -12 196 -12 c 0
 100 -12 50 68 50 160 c 0
 50 318 176 462 303 462 c 0
167 232 m 1
 177 230 184 229 194 229 c 0
 284 229 346 310 346 381 c 0
 346 411 330 437 305 437 c 0
 244 437 206 347 185 285 c 2
 167 232 l 1
EndSplineSet
Validated: 1
Layer: 4
SplineSet
362 367 m 4
 362 405 346 435 303 435 c 4
 232 435 197 322 169 237 c 4
 153 186 133 128 133 84 c 4
 133 47 149 18 192 18 c 4
 263 18 298 127 325 212 c 4
 342 263 362 322 362 367 c 4
299 462 m 4
 395 462 444 381 444 288 c 4
 444 258 439 227 429 196 c 4
 391 81 292 -12 195 -12 c 4
 99 -12 50 69 50 162 c 4
 50 321 181 462 299 462 c 4
EndSplineSet
EndChar

StartChar: p
Encoding: 112 112 3
Width: 583
VWidth: 0
Flags: HMW
LayerCount: 5
Fore
SplineSet
191 80 m 1
 122 -139 l 2
 105 -189 122 -199 170 -198 c 2
 206 -198 l 1
 196 -230 l 1
 -90 -230 l 1
 -80 -198 l 1
 -42 -198 l 2
 -4 -198 19 -179 30 -144 c 2
 178 312 l 2
 190 349 198 377 198 395 c 0
 198 410 192 418 177 418 c 0
 146 418 90 347 55 243 c 1
 23 249 l 1
 62 375 134 462 206 462 c 0
 259 462 279 423 276 371 c 9
 287 371 l 1
 329 429 382 462 425 462 c 0
 496 462 533 402 533 332 c 0
 533 173 423 -12 294 -12 c 0
 246 -12 213 24 199 80 c 1
 191 80 l 1
397 421 m 0
 358 421 282 352 249 250 c 2
 237 214 l 2
 227 185 219 155 219 130 c 0
 219 76 241 31 274 31 c 0
 309 31 365 75 410 215 c 0
 448 333 452 421 397 421 c 0
EndSplineSet
Validated: 33
EndChar

StartChar: r
Encoding: 114 114 4
Width: 478
VWidth: 0
Flags: HMW
LayerCount: 5
Fore
SplineSet
276 369 m 1
 316 425 365 463 403 463 c 3
 441 463 473 434 473 396 c 0
 473 359 451 327 417 327 c 0
 392 327 371 343 368 373 c 0
 365 401 352 407 335 393 c 0
 293 359 270 301 248 233 c 2
 172 0 l 1
 82 0 l 1
 167 261 l 2
 181 305 208 418 168 418 c 0
 137 418 94 344 59 240 c 1
 30 247 l 1
 69 373 118 462 197 462 c 0
 252 462 265 417 269 369 c 1
 276 369 l 1
EndSplineSet
Validated: 33
Layer: 2
SplineSet
168 418 m 4
 137 418 94 344 59 240 c 5
 30 247 l 5
 69 373 118 462 197 462 c 4
 251 462 269 416 272 365 c 5
 315 424 363 463 403 463 c 4
 441 463 473 434 473 396 c 4
 473 359 451 327 417 327 c 4
 392 327 371 343 368 373 c 4
 365 401 352 407 335 393 c 4
 293 359 270 301 248 233 c 6
 172 0 l 5
 82 0 l 5
 167 261 l 6
 181 305 208 418 168 418 c 4
EndSplineSet
Layer: 3
SplineSet
352 404 m 1
 309 369 240 279 202 166 c 9
 172 166 l 17
 220 319 331 463 400 463 c 0
 446 463 474 430 474 384 c 0
 474 341 446 308 412 308 c 0
 378 308 342 345 352 404 c 1
168 418 m 7
 137 418 96 348 61 244 c 13
 31 244 l 21
 70 370 125 462 197 462 c 7
 289 462 283 338 256 255 c 2
 173 0 l 9
 83 0 l 17
 168 261 l 2
 182 305 208 418 168 418 c 7
361 390 m 0
 361 428 386 460 417 460 c 0
 448 460 473 428 473 390 c 0
 473 352 448 321 417 321 c 0
 386 321 361 352 361 390 c 0
EndSplineSet
EndChar

StartChar: m
Encoding: 109 109 5
Width: 824
VWidth: 0
Flags: HMW
LayerCount: 5
Fore
SplineSet
505 337 m 1
 555 408 612 462 659 462 c 0
 729 462 755 380 713 269 c 2
 664 138 l 2
 636 65 626 32 663 32 c 0
 690 32 726 92 745 149 c 1
 774 141 l 1
 748 58 699 -12 631 -12 c 0
 561 -12 542 55 574 138 c 2
 623 269 l 2
 660 367 670 424 637 424 c 0
 608 424 502 320 462 196 c 2
 398 0 l 1
 308 0 l 1
 394 265 l 2
 427 365 437 425 407 425 c 0
 383 425 265 330 218 186 c 2
 158 0 l 1
 68 0 l 1
 169 312 l 2
 191 382 207 418 170 418 c 0
 143 418 107 358 88 301 c 5
 60 310 l 5
 86 393 133 462 202 462 c 0
 266 462 282 400 264 341 c 1
 272 341 l 1
 308 392 377 462 426 462 c 0
 482 462 508 404 497 337 c 1
 505 337 l 1
EndSplineSet
Validated: 33
Layer: 2
SplineSet
224 174 m 13
 195 174 l 21
 237.8203125 310.487304688 363 462 436 462 c 7
 506 462 530 377 494 265 c 6
 408 0 l 29
 318 0 l 29
 404 265 l 6
 436.674804688 364.525390625 447 425 417 425 c 4
 392.5 425 279.065429688 337.315429688 224 174 c 13
584 138 m 6
 633 269 l 6
 670 367 680 424 647 424 c 7
 614 424 509.563476562 317.821289062 462 174 c 13
 434 174 l 5
 482 327 599 462 669 462 c 7
 739 462 765 380 723 269 c 6
 674 138 l 6
 646 65 636 32 673 32 c 7
 700 32 736 92 755 149 c 13
 784 141 l 21
 758 58 709 -12 641 -12 c 7
 571 -12 552 55 584 138 c 6
168 0 m 13
 78 0 l 29
 179 312 l 6
 201 382 217 418 180 418 c 7
 153 418 117 358 98 301 c 13
 70 310 l 21
 96 393 144 462 212 462 c 7
 282 462 296 395 269 312 c 6
 168 0 l 13
EndSplineSet
Layer: 3
SplineSet
224 174 m 13
 195 174 l 21
 240.581054688 319.288085938 362 458 435 458 c 7
 505 458 530 377 494 265 c 6
 408 0 l 29
 318 0 l 29
 404 265 l 6
 436.674804688 364.525390625 446 421 416 421 c 4
 391.5 421 281.640625 344.952148438 224 174 c 13
648 420 m 0
 678 420 669.390625 362.8515625 632 265 c 2
 585 142 l 2
 553.327148438 59.111328125 572 -8 642 -8 c 3
 710 -8 760 67 786 150 c 9
 756 150 l 17
 737 93 701 36 674 36 c 3
 637 36 647.249023438 69.3759765625 675 142 c 2
 722 265 l 2
 764.25 375.578125 732 458 668 458 c 3
 591.5 458 480.580078125 322.474609375 434 174 c 9
 462 174 l 17
 520.5 347.5 623.5 420 648 420 c 0
168 0 m 9
 78 0 l 25
 178 308 l 2
 200 378 216 414 179 414 c 3
 152 414 116 357 97 300 c 9
 67 300 l 17
 93 383 143 458 211 458 c 3
 281 458 295 391 268 308 c 2
 168 0 l 9
EndSplineSet
EndChar

StartChar: a
Encoding: 97 97 6
Width: 555
VWidth: 0
Flags: W
HStem: -12 45<142.768 223.035 344.5 424.234> 424 38<264.929 347.727>
VStem: 55 82<39.5892 208.529> 302 77<36.3324 78.9311> 483 27<116.187 144.124>
LayerCount: 5
Fore
SplineSet
295 79 m 1
 257 26 205 -12 157 -12 c 0
 83 -12 55 66 55 148 c 0
 55 184 60 221 70 252 c 0
 107 369 210 462 300 462 c 3
 350 462 374 432 383 384 c 1
 391 384 l 1
 412 450 l 1
 502 450 l 1
 402 142 l 2
 389 102 379 73 379 56 c 0
 379 43 385 36 401 36 c 0
 428 36 464 93 483 150 c 1
 510 142 l 1
 484 62 435 -8 369 -8 c 0
 320 -8 302 24 302 79 c 1
 295 79 l 1
312 424 m 0
 243 424 194 313 169 240 c 0
 151 184 137 128 137 88 c 0
 137 55 147 33 172 33 c 0
 243 33 304 127 333 208 c 1
 344 242 l 1
 354 276 361 315 361 348 c 0
 361 391 349 424 312 424 c 0
EndSplineSet
Validated: 1
Layer: 2
SplineSet
312.11328125 424 m 4
 243.11328125 424 194.11328125 313 169.11328125 240 c 4
 135.11328125 136 117.11328125 33 172.11328125 33 c 4
 248.11328125 33 312.11328125 141 339.11328125 224 c 4
 364.11328125 301 382.11328125 424 312.11328125 424 c 4
300.11328125 462 m 4
 381.11328125 462 405.11328125 385 392.11328125 273 c 4
 382.11328125 187 270.11328125 -12 157.11328125 -12 c 4
 50.11328125 -12 39.11328125 151 70.11328125 252 c 4
 107.11328125 369 210.11328125 462 300.11328125 462 c 4
510.11328125 142 m 1
 484.11328125 62 435.11328125 -8 369.11328125 -8 c 3
 299.11328125 -8 285.11328125 59 312.11328125 142 c 2
 412.11328125 450 l 9
 502.11328125 450 l 25
 402.11328125 142 l 2
 380.11328125 72 364.11328125 36 401.11328125 36 c 3
 428.11328125 36 464.11328125 93 483.11328125 150 c 9
 510.11328125 142 l 1
EndSplineSet
EndChar

StartChar: c
Encoding: 99 99 7
Width: 465
VWidth: 0
Flags: HMW
LayerCount: 5
Fore
SplineSet
303 433 m 0
 232 433 196 322 169 237 c 0
 131 115 128 26 206 26 c 0
 254 26 301 56 349 138 c 1
 379 129 l 1
 339 39 269 -12 195 -12 c 0
 99 -12 50 69 50 162 c 0
 50 321 181 462 299 462 c 0
 373 462 415 397 415 349 c 0
 415 308 387 268 350 268 c 0
 323 268 301 290 301 320 c 0
 301 346 312 367 337 388 c 0
 356 404 341 433 303 433 c 0
EndSplineSet
Validated: 33
Layer: 3
SplineSet
291 325 m 0
 291 370 327 394 352 395 c 1
 342 414 325 427 296 427 c 0
 236 427 195 316 172 248 c 0
 160 212 143 159 143 116 c 0
 143 75 158 44 205 44 c 0
 252 44 313 81 352 148 c 9
 380 138 l 17
 340 48 264 -8 190 -8 c 0
 99 -8 54 69 54 160 c 0
 54 318 183 458 296 458 c 0
 370 458 406 399 406 346 c 0
 406 302 378 266 343 266 c 0
 310 266 291 296 291 325 c 0
295 348 m 0
 306 382 339 403 368 393 c 0
 397 383 412 348 401 314 c 0
 390 280 357 259 328 269 c 0
 299 279 284 314 295 348 c 0
EndSplineSet
Layer: 4
SplineSet
362 367 m 0
 362 405 346 435 303 435 c 4
 232 435 197 322 169 237 c 4
 153 186 133 128 133 84 c 0
 133 47 149 18 192 18 c 0
 263 18 298 127 325 212 c 0
 342 263 362 322 362 367 c 0
299 462 m 4
 395 462 444 381 444 288 c 0
 444 258 439 227 429 196 c 0
 391 81 292 -12 195 -12 c 4
 99 -12 50 69 50 162 c 4
 50 321 181 462 299 462 c 4
EndSplineSet
EndChar

StartChar: n
Encoding: 110 110 8
Width: 594
VWidth: 0
Flags: HMW
LayerCount: 5
Fore
SplineSet
271 341 m 5
 317 409 384 462 425 462 c 4
 495 462 525 380 483 269 c 6
 434 138 l 6
 406 65 396 32 433 32 c 4
 460 32 496 92 515 149 c 5
 544 141 l 5
 518 58 469 -12 401 -12 c 4
 331 -12 312 55 344 138 c 6
 393 269 l 6
 430 367 436 424 403 424 c 4
 371 424 260 315 226 209 c 6
 158 0 l 5
 68 0 l 5
 169 312 l 6
 191 382 207 418 170 418 c 4
 143 418 107 358 88 301 c 5
 60 310 l 5
 86 393 134 462 202 462 c 4
 266 462 281 400 263 341 c 5
 271 341 l 5
EndSplineSet
Validated: 33
Layer: 2
SplineSet
344 138 m 6
 393 269 l 6
 430 367 436 424 403 424 c 7
 370 424 262 320 220 193 c 13
 186 174 l 5
 234 327 355 462 425 462 c 7
 495 462 525 380 483 269 c 6
 434 138 l 6
 406 65 396 32 433 32 c 7
 460 32 496 92 515 149 c 13
 544 141 l 21
 518 58 469 -12 401 -12 c 7
 331 -12 312 55 344 138 c 6
158 0 m 9
 68 0 l 25
 169 312 l 2
 191 382 207 418 170 418 c 3
 143 418 107 358 88 301 c 9
 60 310 l 17
 86 393 134 462 202 462 c 3
 272 462 286 395 259 312 c 2
 158 0 l 9
EndSplineSet
EndChar

StartChar: o
Encoding: 111 111 9
Width: 504
VWidth: 0
Flags: HMW
LayerCount: 5
Fore
SplineSet
362 367 m 0
 362 405 346 435 303 435 c 0
 232 435 197 322 169 237 c 0
 153 186 133 128 133 84 c 0
 133 47 149 18 192 18 c 0
 263 18 298 127 325 212 c 0
 342 263 362 322 362 367 c 0
299 462 m 0
 395 462 444 381 444 288 c 0
 444 258 439 227 429 196 c 0
 391 81 292 -12 195 -12 c 0
 99 -12 50 69 50 162 c 0
 50 321 181 462 299 462 c 0
EndSplineSet
Validated: 1
Layer: 2
SplineSet
315 434 m 0
 236 447 198 327 169 237 c 0
 140 146 101 32 180 19 c 0
 259 6 296 122 325 212 c 0
 355 302 394 421 315 434 c 0
323 460 m 0
 427 443 469 320 429 196 c 0
 388 72 275 -27 171 -10 c 0
 67 7 25 130 65 254 c 0
 105 377 219 477 323 460 c 0
402 450 m 25
 256 0 l 25
 402 450 l 25
238 450 m 25
 92 0 l 25
 238 450 l 25
651 111 m 1
 -33 219 l 1
 651 111 l 1
651 211 m 1
 -33 319 l 1
 651 211 l 1
-32.515625 269.271484375 m 17
 247 225 l 1
 650.96484375 161.018554688 l 1033
138 -111 m 25
 334.5 494 l 1049
365 0 m 25
 511 450 l 1049
-17 0 m 25
 129 450 l 1049
EndSplineSet
EndChar

StartChar: t
Encoding: 116 116 10
Width: 379
VWidth: 0
Flags: HMW
LayerCount: 5
Fore
SplineSet
70 142 m 2
 159 415 l 1
 77 415 l 1
 88 450 l 1
 170 450 l 1
 221 606 l 1
 323 643 l 1
 260 450 l 1
 359 450 l 1
 348 415 l 1
 249 415 l 1
 160 142 l 2
 137 71 129 36 166 36 c 0
 191 36 250 72 285 176 c 1
 317 168 l 1
 279 47 207 -8 147 -8 c 0
 90 -8 60 30 60 84 c 0
 60 102 63 122 70 142 c 2
EndSplineSet
Validated: 33
EndChar

StartChar: l
Encoding: 108 108 11
Width: 358
VWidth: 0
Flags: HMW
LayerCount: 5
Fore
SplineSet
201 576 m 2
 211 608 191 631 160 631 c 2
 123 631 l 1
 132 662 l 1
 323 674 l 1
 150 142 l 2
 127 71 119 36 156 36 c 0
 181 36 240 72 275 176 c 1
 307 168 l 1
 269 47 197 -8 137 -8 c 0
 80 -8 50 30 50 84 c 0
 50 102 53 122 60 142 c 2
 201 576 l 2
EndSplineSet
Validated: 33
Layer: 2
SplineSet
184 523 m 6
 187 533 189 541 189 548 c 4
 189 582 154 588 106 588 c 5
 115 617 l 5
 306 621 l 5
 150 142 l 6
 138 106 130 79 130 61 c 4
 130 44 137 36 156 36 c 4
 181 36 239 67 274 171 c 5
 304 171 l 5
 266 50 197 -8 137 -8 c 4
 80 -8 50 30 50 84 c 4
 50 102 53 122 60 142 c 6
 184 523 l 6
EndSplineSet
EndChar

StartChar: g
Encoding: 103 103 12
Width: 604
VWidth: 0
Flags: HMW
LayerCount: 5
Fore
SplineSet
312 462 m 0
 370 462 416 438 441 395 c 1
 465 434 504 474 544 474 c 0
 594 474 624 439 624 395 c 0
 624 366 607 337 578 337 c 0
 557 337 535 352 535 380 c 0
 535 394 539 399 539 411 c 0
 539 420 531 425 522 425 c 0
 495 425 475 398 455 359 c 1
 457 350 458 341 458 332 c 0
 458 314 455 296 448 275 c 0
 417 179 334 141 265 141 c 0
 230 141 205 149 181 163 c 1
 119 149 65 131 65 87 c 0
 65 48 127 45 167 45 c 0
 175 45 182 45 188 45 c 2
 215 45 l 2
 329 45 410 7 410 -69 c 0
 410 -165 301 -225 168 -225 c 0
 51 -225 -60 -199 -60 -122 c 0
 -60 -81 -12 -44 57 -24 c 1
 14 -8 -6 21 -6 60 c 0
 -6 132 91 171 152 185 c 1
 132 206 120 235 120 270 c 0
 120 287 122 306 129 326 c 0
 161 423 243 462 312 462 c 0
374 373 m 0
 374 408 359 435 323 435 c 0
 282 435 248 392 231 339 c 2
 213 283 l 2
 207 264 203 245 203 229 c 0
 203 195 219 168 256 168 c 0
 296 168 329 209 346 261 c 2
 364 318 l 2
 371 338 374 357 374 373 c 0
152 -38 m 0
 85 -42 4 -59 4 -120 c 0
 4 -181 107 -194 168 -194 c 0
 254 -194 338 -172 338 -100 c 0
 338 -52 288 -38 232 -38 c 2
 178 -38 l 2
 170 -38 163 -38 156 -38 c 0
 155 -38 153 -38 152 -38 c 0
EndSplineSet
Validated: 1
Layer: 2
SplineSet
-6 60 m 7xee
 -6 140 114 180 172 189 c 13
 206 168 l 21
 135 154 65 137 65 87 c 7xee
 65 40 156 45 188 45 c 6
 215 45 l 6
 329 45 410 7 410 -69 c 7
 410 -165 301 -225 168 -225 c 7
 51 -225 -60 -199 -60 -122 c 7
 -60 -61.5 42 -12 163 -7 c 13
 163 -38 l 21
 94 -40 4 -55.5 4 -120 c 7xf6
 4 -180.525390625 107 -194 168 -194 c 7
 254 -194 338 -172 338 -100 c 7
 338 -52 288 -38 232 -38 c 6
 178 -38 l 6
 53 -43 -6 -6.5 -6 60 c 7xee
332 434 m 4
 287.591796875 441.272460938 249.334960938 396 231.334960938 339 c 14
 213.334960938 283 l 22
 194.334960938 226 201.591796875 176.272460938 246 169 c 4
 290.408203125 161.727539062 327.33203125 204.333984375 346.33203125 261.333984375 c 14
 364.33203125 318.333984375 l 22
 383.33203125 375.333984375 376.408203125 426.727539062 332 434 c 4
544 474 m 7xe6
 594 474 624 438.848632812 624 395 c 31
 624 366.129882812 607 337 578 337 c 7
 557 337 535 352 535 380 c 7
 535 394 539 398.809570312 539 411 c 31
 539 419.588867188 531 425 522 425 c 7
 489 425 466.666992188 384.333007812 441.33203125 331.33203125 c 13
 424.333007812 361.331054688 l 21
 442 407.333007812 492 474 544 474 c 7xe6
340 460 m 4
 414 448 484 385 448 275 c 4
 413 166 310 131 236 143 c 4
 162 155 94 217 129 326 c 4
 165 436 266 472 340 460 c 4
436 524 m 25
 290 74 l 25
 436 524 l 25
286 524 m 25
 140 74 l 25
 286 524 l 25
8 178 m 17
 692 70 l 1033
8 508 m 17
 692 400 l 1033
8 207 m 17
 692 99 l 1033
8 479 m 17
 692 371 l 1033
8.484375 343.271484375 m 17
 288 299 l 1
 691.96484375 235.018554688 l 1033
8 315 m 17
 692 207 l 1033
8 375 m 17
 692 267 l 1033
179 -37 m 25
 375.5 568 l 1049
383 74 m 25
 529 524 l 1049
47 74 m 25
 193 524 l 1049
EndSplineSet
Layer: 3
SplineSet
330 429 m 0
 285.591796875 436.272460938 248.334960938 394 230.334960938 337 c 10
 212.334960938 281 l 18
 193.334960938 224 200.591796875 177.272460938 245 170 c 0
 289.408203125 162.727539062 326.33203125 202.333984375 345.33203125 259.333984375 c 10
 363.33203125 316.333984375 l 18
 382.33203125 373.333984375 374.408203125 421.727539062 330 429 c 0
544 474 m 3xe6
 594 474 624 439 624 393 c 3
 624 363.088867188 606.333007812 334 575 334 c 3
 549 334 529 352 529 380 c 3
 529 394 533 398.809570312 533 411 c 27
 533 418.451171875 528 424 519 424 c 3
 488.666992188 424 466.666992188 384.333007812 441.33203125 331.33203125 c 9
 424.333007812 361.331054688 l 17
 442 407.333007812 492 474 544 474 c 3xe6
-6 60 m 7xee
 -6 140 117 176 172 189 c 13
 206 168 l 21
 140 145 65 137 65 87 c 7xee
 65 40 147 44 177 45 c 6
 230 47 l 6
 311 51 410 35 410 -49 c 7
 410 -164 275 -225 142 -225 c 7
 55 -225 -60 -210.5 -60 -125 c 7
 -60 -64.5 26 -17 154 -7 c 13
 154 -38 l 21
 85 -45 4 -58.5 4 -123 c 7xf6
 4 -183.525390625 81.474609375 -194 142 -194 c 31
 229.46484375 -194 338 -165.5 338 -85 c 7
 338 -35 261 -35 232 -36 c 6
 178 -38 l 6
 53 -43 -6 -6.5 -6 60 c 7xee
339 456 m 0
 413 444 483 383 447 273 c 0
 412 164 310 131 236 143 c 0
 162 155 93 215 128 324 c 0
 164 434 265 468 339 456 c 0
EndSplineSet
EndChar

StartChar: period
Encoding: 46 46 14
Width: 262
VWidth: 0
Flags: HMW
LayerCount: 5
Fore
SplineSet
40 59 m 0
 40 98 72 130 111 130 c 0
 150 130 182 98 182 59 c 0
 182 20 150 -12 111 -12 c 0
 72 -12 40 20 40 59 c 0
EndSplineSet
Validated: 1
EndChar

StartChar: i
Encoding: 105 105 15
Width: 362
VWidth: 0
Flags: HMW
LayerCount: 5
Fore
SplineSet
236 616 m 4x98
 236 648 262 674 294 674 c 4
 326 674 352 648 352 616 c 4
 352 584 326 558 294 558 c 4
 262 558 236 584 236 616 c 4x98
103 138 m 2
 169 312 l 2
 184 352 194 379 194 397 c 0
 194 411 187 418 170 418 c 3
 143 418 107 361 88 304 c 1
 60 313 l 17
 86 396 134 462 202 462 c 3
 250 462 274 430 274 384 c 0
 274 363 269 338 259 312 c 2
 193 138 l 2
 178 98 168 71 168 53 c 0
 168 39 175 32 192 32 c 3
 219 32 255 89 274 146 c 1
 302 137 l 17
 276 54 228 -12 160 -12 c 3
 112 -12 88 20 88 66 c 0
 88 87 93 112 103 138 c 2
EndSplineSet
Validated: 1
Layer: 2
SplineSet
258 308 m 6
 194 142 l 6
 179 102 169 75 169 57 c 4
 169 43 176 36 193 36 c 7
 220 36 256 93 275 150 c 13
 305 150 l 21
 279 67 229 -8 161 -8 c 4
 113 -8 89 24 89 70 c 4
 89 91 94 116 104 142 c 6
 168 308 l 6
 183 348 193 375 193 393 c 4
 193 407 186 414 169 414 c 7
 142 414 106 357 87 300 c 13
 57 300 l 21
 83 383 133 458 201 458 c 7
 249 458 273 426 273 380 c 4
 273 359 268 334 258 308 c 6
EndSplineSet
EndChar

StartChar: u
Encoding: 117 117 16
Width: 594
VWidth: 0
Flags: HMW
LayerCount: 5
Fore
SplineSet
335 109 m 1
 294 42 226 -12 185 -12 c 0
 115 -12 79 70 121 181 c 2
 170 312 l 2
 198 385 208 418 171 418 c 0
 144 418 108 358 89 301 c 1
 60 309 l 1
 86 392 135 462 203 462 c 0
 273 462 292 395 260 312 c 2
 211 181 l 2
 174 83 174 26 207 26 c 0
 244 26 341 128 378 241 c 2
 446 450 l 1
 536 450 l 1
 435 138 l 2
 413 68 397 32 434 32 c 0
 461 32 497 92 516 149 c 1
 544 140 l 1
 518 57 470 -12 402 -12 c 0
 338 -12 325 50 343 109 c 1
 335 109 l 1
EndSplineSet
Validated: 33
Layer: 2
SplineSet
333 109 m 5
 287 41 220 -12 179 -12 c 4
 109 -12 79 70 121 181 c 6
 170 312 l 6
 198 385 208 418 171 418 c 4
 144 418 108 358 89 301 c 5
 60 309 l 5
 86 392 135 462 203 462 c 4
 273 462 292 395 260 312 c 6
 211 181 l 6
 174 83 168 26 201 26 c 4
 233 26 344 135 378 241 c 6
 446 450 l 1
 536 450 l 1
 435 138 l 2
 413 68 397 32 434 32 c 0
 461 32 497 92 516 149 c 1
 544 140 l 1
 518 57 470 -12 402 -12 c 0
 338 -12 323 50 341 109 c 5
 333 109 l 5
EndSplineSet
EndChar

StartChar: v
Encoding: 118 118 17
Width: 535
VWidth: 0
Flags: HMW
LayerCount: 5
Fore
SplineSet
485 342 m 0
 485 210 399 -12 241 -12 c 3
 112 -12 96 104 141 221 c 2
 175 312 l 6
 203 385 205 418 172 418 c 7
 139 418 91 369 69 302 c 13
 40 308 l 21
 66 391 124 462 200 462 c 7
 270 462 297 395 265 312 c 6
 228 212 l 2
 193 122 197 34 255 34 c 3
 365 34 434 194 434 270 c 0
 434 293 425 308 405 332 c 0
 384 358 360 387 360 423 c 11
 360 449 380 474 402 474 c 3
 454 474 485 412 485 342 c 0
EndSplineSet
Validated: 33
Layer: 2
SplineSet
485 342 m 4
 485 210 400 -8 242 -8 c 7
 113 -8 97 108 142 225 c 6
 174 308 l 6
 202 381 204 414 171 414 c 7
 138 414 91 367 69 300 c 13
 39 300 l 21
 65 383 123 458 199 458 c 7
 269 458 296 391 264 308 c 6
 229 216 l 6
 194 126 198 38 256 38 c 7
 366 38 434 194 434 270 c 4
 434 293 425 308 405 332 c 4
 384 358 360 387 360 423 c 15
 360 449 380 474 402 474 c 7
 454 474 485 412 485 342 c 4
EndSplineSet
EndChar

StartChar: b
Encoding: 98 98 18
Width: 509
VWidth: 0
Flags: HMW
LayerCount: 5
Fore
SplineSet
332 424 m 0
 272 424 191 312 162 224 c 2
 151 190 l 2
 135 141 124 98 124 67 c 0
 124 34 136 15 163 15 c 0
 225 15 297 104 334 218 c 0
 357 288 370 340 370 374 c 0
 370 407 358 424 332 424 c 0
225 385 m 1
 259 424 306 462 352 462 c 0
 422 462 454 401 454 331 c 0
 454 158 296 -12 176 -12 c 0
 85 -12 55 48 55 118 c 0
 55 153 63 191 74 225 c 2
 188 576 l 6
 192 588 194 597 194 605 c 4
 194 629 174 631 147 631 c 6
 110 631 l 5
 119 662 l 5
 310 674 l 5
 216 385 l 1
 225 385 l 1
EndSplineSet
Validated: 1
Layer: 2
SplineSet
326 424 m 0
 279 424 198 334 171 251 c 2
 151 190 l 2
 117.5 89.5 109 15 163 15 c 0
 225 15 297 104 334 218 c 0
 379 355 379 424 326 424 c 0
192 588 m 6
 208.817382812 639.734375 186 643 151 643 c 6
 151 643 118 643 114 643 c 5
 123 674 l 5
 314 686 l 5
 213 376 l 5
 247 418 303 462 352 462 c 0
 422 462 454 401 454 331 c 0
 454 158 296 -12 176 -12 c 4
 38.357421875 -12 40.658203125 124.975585938 74 225 c 6
 192 588 l 6
EndSplineSet
EndChar

StartChar: h
Encoding: 104 104 19
Width: 537
VWidth: 0
Flags: HMW
LayerCount: 5
Fore
SplineSet
222 351 m 1
 267 416 329 462 368 462 c 3
 438 462 468 380 426 269 c 2
 377 138 l 2
 349 65 339 32 376 32 c 0
 403 32 439 92 458 149 c 1
 487 141 l 1
 461 58 412 -12 344 -12 c 0
 274 -12 255 55 287 138 c 2
 336 269 l 2
 373 367 379 424 346 424 c 0
 315 424 215 331 169 213 c 1
 100 0 l 1
 10 0 l 1
 197 576 l 2
 215 632 177 632 119 632 c 1
 129 662 l 1
 319 674 l 1
 212 351 l 1
 222 351 l 1
EndSplineSet
Validated: 33
Layer: 2
SplineSet
287 138 m 6
 336 269 l 6
 373 367 379 424 346 424 c 7
 313 424 204 320 162 193 c 13
 128 174 l 5
 176 327 298 462 368 462 c 7
 438 462 468 380 426 269 c 6
 377 138 l 6
 349 65 339 32 376 32 c 7
 403 32 439 92 458 149 c 13
 487 141 l 21
 461 58 412 -12 344 -12 c 7
 274 -12 255 55 287 138 c 6
323 686 m 5
 100 0 l 5
 10 0 l 5
 201 588 l 6
 219 644 181 644 123 644 c 5
 133 674 l 5
 323 686 l 5
EndSplineSet
EndChar

StartChar: q
Encoding: 113 113 20
Width: 519
VWidth: 0
Flags: HMW
LayerCount: 5
Fore
SplineSet
307 424 m 0
 238 424 189 313 164 240 c 0
 146 184 132 128 132 88 c 0
 132 55 142 33 167 33 c 0
 238 33 298 127 328 207 c 1
 340 244 l 1
 349 277 356 314 356 347 c 0
 356 390 344 424 307 424 c 0
393 384 m 1
 470 462 l 1
 499 456 l 1
 306 -139 l 2
 302 -152 300 -162 300 -170 c 0
 300 -193 318 -198 354 -198 c 2
 390 -198 l 1
 380 -230 l 1
 84 -230 l 1
 94 -198 l 1
 142 -198 l 2
 180 -198 203 -181 214 -146 c 1
 285 60 l 1
 276 60 l 1
 239 18 193 -12 152 -12 c 0
 78 -12 50 66 50 148 c 0
 50 184 55 221 65 252 c 0
 102 369 205 462 295 462 c 0
 343 462 373 433 383 384 c 1
 393 384 l 1
EndSplineSet
Validated: 1
Layer: 2
SplineSet
306 -139 m 6
 289 -189 306 -198 354 -198 c 6
 390 -198 l 5
 380 -230 l 5
 84 -230 l 5
 94 -198 l 5
 142 -198 l 6
 180 -198 203 -181 214 -146 c 6
 384 380 l 5
 470 462 l 5
 499 456 l 5
 306 -139 l 6
307 424 m 4
 238 424 189 313 164 240 c 4
 130 136 112 33 167 33 c 4
 243 33 307 141 334 224 c 4
 359 301 377 424 307 424 c 4
295 462 m 4
 376 462 400 385 387 273 c 4
 377 187 265 -12 152 -12 c 4
 45 -12 34 151 65 252 c 4
 102 369 205 462 295 462 c 4
EndSplineSet
EndChar

StartChar: k
Encoding: 107 107 21
Width: 538
VWidth: 0
Flags: HMW
LayerCount: 5
Fore
SplineSet
100 0 m 1
 10 0 l 1
 197 576 l 6
 215 632 177 633 119 633 c 5
 128 662 l 5
 319 674 l 5
 193 285 l 1
 307 286 300 462 423 462 c 0
 473 462 508 429 508 386 c 0
 508 348 481 324 450 324 c 0
 416 324 398 354 398 381 c 0
 398 388 399 395 401 402 c 0
 409 430 386 426 375 417 c 0
 336 386 312 306 255 274 c 1
 288 258 312 223 319 156 c 1
 327 89 328 40 360 40 c 0
 389 40 420 79 442 146 c 1
 474 138 l 1
 448 55 390 -12 320 -12 c 0
 182 -12 291 259 187 259 c 2
 184 259 l 1
 100 0 l 1
EndSplineSet
Validated: 33
Layer: 3
SplineSet
124 259 m 5
 140 285 l 29
 201 285 l 22
 260 285 309 256 319 156 c 4
 327 89 327 44 359 44 c 7
 388 44 419 83 441 150 c 13
 471 150 l 21
 445 67 389 -8 319 -8 c 7
 181 -8 291 259 187 259 c 6
 124 259 l 5
413.666015625 426.000976562 m 5
 329.3671875 433.500976562 325 259 196 259 c 14
 124 259 l 5
 192 285 l 5
 307 285 298 458 421 458 c 4
 471 458 506 425 506 382 c 4
 506 344.5 478.5 320 448 320 c 4
 414 320 396 350.5 396 377 c 4
 396 396.5 404 416.5 413.666015625 426.000976562 c 5
100 0 m 29
 10 0 l 21
 200 584 l 5
 302 621 l 29
 100 0 l 29
302 621 m 29
 180 523 l 21
 198 579 160 588 102 588 c 13
 111 617 l 29
 302 621 l 29
EndSplineSet
EndChar

StartChar: d
Encoding: 100 100 22
Width: 580
VWidth: 0
Flags: HMW
LayerCount: 5
Fore
SplineSet
297 79 m 1
 290 79 l 1
 252 26 200 -12 152 -12 c 0
 78 -12 50 65 50 147 c 0
 50 183 55 221 65 252 c 0
 102 369 205 462 295 462 c 0
 345 462 369 432 378 384 c 1
 386 384 l 1
 448 576 l 6
 450 582 451 587 451 592 c 4
 451 615 433 631 407 631 c 6
 370 631 l 5
 379 662 l 5
 570 674 l 5
 397 142 l 2
 385 106 377 79 377 62 c 0
 377 44 385 36 403 36 c 0
 428 36 487 72 522 176 c 1
 554 168 l 1
 516 47 444 -8 384 -8 c 0
 327 -8 297 32 297 79 c 1
307 424 m 0
 238 424 189 313 164 240 c 0
 146 184 132 128 132 88 c 0
 132 55 142 33 167 33 c 0
 238 33 299 128 329 208 c 1
 339 241 l 2
 349 275 356 314 356 347 c 0
 356 390 344 424 307 424 c 0
EndSplineSet
Validated: 1
Layer: 2
SplineSet
307 424 m 4
 238 424 189 313 164 240 c 4
 130 136 112 33 167 33 c 4
 243 33 307 141 334 224 c 4
 359 301 377 424 307 424 c 4
295 462 m 4
 376 462 400 385 387 273 c 4
 377 187 265 -12 152 -12 c 4
 45 -12 34 151 65 252 c 4
 102 369 205 462 295 462 c 4
452 588 m 2
 462 620 442 643 411 643 c 2
 374 643 l 1
 383 674 l 1
 574 686 l 1
 397 142 l 2
 374 71 366 36 403 36 c 0
 428 36 487 72 522 176 c 1
 554 168 l 1
 516 47 444 -8 384 -8 c 0
 327 -8 297 30 297 84 c 0
 297 102 300 122 307 142 c 2
 452 588 l 2
452 588 m 2
 462 620 442 643 411 643 c 2
 374 643 l 1
 383 674 l 1
 574 686 l 1
 397 142 l 2
 374 71 366 36 403 36 c 0
 428 36 487 72 522 176 c 1
 554 168 l 1
 516 47 444 -8 384 -8 c 0
 327 -8 297 30 297 84 c 0
 297 102 300 122 307 142 c 2
 452 588 l 2
EndSplineSet
EndChar

StartChar: f
Encoding: 102 102 23
Width: 406
VWidth: 0
Flags: HMW
LayerCount: 5
Fore
SplineSet
67 415 m 1
 78 450 l 1
 199 450 l 1
 246 580 320 710 446 710 c 0
 518 710 563 664 563 614 c 0
 563 573 535 549 506 549 c 0
 476 549 452 572 452 602 c 0
 452 637 483 646 483 663 c 0
 483 674 466 679 452 679 c 0
 370 679 326 548 299 450 c 1
 420 450 l 5
 409 415 l 5
 289 415 l 1
 230 202 l 2
 184 37 99 -245 -77 -245 c 0
 -150 -245 -197 -199 -197 -149 c 0
 -197 -100 -168 -77 -135 -77 c 0
 -103 -77 -77 -102 -77 -135 c 0
 -77 -174 -110 -187 -110 -200 c 0
 -110 -209 -102 -214 -83 -214 c 0
 9 -214 59 -26 88 74 c 2
 165 343 l 2
 172 366 179 390 187 415 c 1
 67 415 l 1
EndSplineSet
Validated: 1
Layer: 2
SplineSet
220 202 m 6
 167 37 86 -245 -90 -245 c 4
 -163 -245 -210 -199 -210 -149 c 4
 -210 -100 -181 -77 -148 -77 c 4
 -116 -77 -90 -102 -90 -135 c 4
 -90 -174 -123 -187 -123 -200 c 4
 -123 -209 -115 -214 -96 -214 c 4
 -4 -214 46 -26 78 74 c 6
 165 343 l 6
 214 494 287 710 449 710 c 4
 521 710 566 664 566 614 c 4
 566 573 538 549 509 549 c 4
 479 549 455 572 455 602 c 4
 455 637 486 646 486 663 c 4
 486 674 469 679 455 679 c 4
 364 679 321 517 290 419 c 6
 220 202 l 6
70 415 m 5
 81 450 l 5
 423 450 l 5
 412 415 l 5
 70 415 l 5
EndSplineSet
Layer: 3
SplineSet
230 202 m 2
 184 37 99 -245 -77 -245 c 0
 -150 -245 -197 -199 -197 -149 c 0
 -197 -100 -168 -77 -135 -77 c 0
 -103 -77 -77 -102 -77 -135 c 0
 -77 -174 -110 -187 -110 -200 c 0
 -110 -209 -102 -214 -83 -214 c 0
 9 -214 59 -26 88 74 c 2
 165 343 l 2
 209 496 284 710 446 710 c 0
 518 710 563 664 563 614 c 0
 563 573 535 549 506 549 c 0
 476 549 452 572 452 602 c 0
 452 637 483 646 483 663 c 0
 483 674 466 679 452 679 c 0
 361 679 317 517 290 419 c 2
 230 202 l 2
67 415 m 1
 78 450 l 1
 420 450 l 1
 409 415 l 1
 67 415 l 1
EndSplineSet
EndChar

StartChar: z
Encoding: 122 122 24
Width: 497
VWidth: 1000
Flags: HMW
LayerCount: 5
Fore
SplineSet
168 104 m 0
 223 104 270 65 314 65 c 0
 335 65 370 69 370 93 c 0
 370 118 325 122 325 163 c 0
 325 187 345 204 368 204 c 0
 397 204 417 177 417 131 c 0
 417 55 359 -12 268 -12 c 0
 205 -12 173 36 108 36 c 0
 77 36 46 15 19 -12 c 1
 -10 11 l 1
 367 365 l 1
 312 357 209 367 173 372 c 1
 127 264 l 1
 97 265 l 1
 169 457 l 5
 260 443 392 442 483 457 c 1
 497 435 l 1
 142 102 l 1
 150 103 159 104 168 104 c 0
EndSplineSet
Validated: 33
Layer: 2
SplineSet
168 104 m 4
 223 104 267.5 76.5 317.5 76.5 c 4
 343.5 76.5 375 85 384 123 c 5
 379 122 374 121 370 121 c 4
 344 121 325 143 325 165 c 4
 325 189 345 208 368 208 c 4
 397 208 417 181 417 135 c 4
 417 59 359 -8 268 -8 c 4
 205 -8 148 30 94 30 c 4
 71 30 51 17 32 0 c 5
 -22 0 l 5
 48 61 85 104 168 104 c 4
490 428 m 5
 32 0 l 13
 -22 0 l 29
 356 354 l 21
 330 350 297 348 266 348 c 4
 226 348 188 350 163 352 c 13
 120 250 l 29
 90 251 l 29
 162 443 l 21
 201 440 239 438 278 438 c 4
 340 438 404 442 476 450 c 5
 490 428 l 5
325 164 m 4
 325 188.288085938 344.711914062 208 369 208 c 4
 393.288085938 208 413 188.288085938 413 164 c 4
 413 139.711914062 393.288085938 120 369 120 c 4
 344.711914062 120 325 139.711914062 325 164 c 4
EndSplineSet
Layer: 3
SplineSet
168 104 m 4
 223 104 267 70 311 70 c 4
 343 70 375 85 384 123 c 5
 379 122 374 121 370 121 c 4
 344 121 325 143 325 165 c 4
 325 189 345 208 368 208 c 4
 397 208 417 181 417 135 c 4
 417 59 359 -8 268 -8 c 4
 205 -8 173 36 108 36 c 4
 77 36 51 17 32 0 c 5
 -22 0 l 5
 48 61 85 104 168 104 c 4
490 428 m 5
 32 0 l 13
 -22 0 l 29
 360 358 l 21
 305 350 202 360 166 365 c 13
 120 257 l 29
 90 258 l 29
 162 450 l 21
 253 436 385 435 476 450 c 5
 490 428 l 5
325 164 m 4
 325 188 345 208 369 208 c 4
 393 208 413 188 413 164 c 4
 413 140 393 120 369 120 c 4
 345 120 325 140 325 164 c 4
EndSplineSet
EndChar

StartChar: j
Encoding: 106 106 25
Width: 357
VWidth: 0
Flags: HMW
LayerCount: 5
Fore
SplineSet
271 616 m 0x98
 271 648 297 674 329 674 c 0
 361 674 387 648 387 616 c 0
 387 584 361 558 329 558 c 0
 297 558 271 584 271 616 c 0x98
291 308 m 2
 258 208 l 2
 191.702148438 7.0986328125 100 -225 -32 -225 c 0
 -104 -225 -140 -176 -140 -138 c 0
 -140 -103 -117 -75 -85 -75 c 0
 -54 -75 -30 -95 -30 -131 c 0
 -30 -151 -44 -170 -44 -182 c 0
 -44 -190 -37 -197 -28 -197 c 0
 32 -197 83.6083984375 -51.8720703125 140 121 c 2
 201 308 l 2
 224 379 236 414 199 414 c 0
 174 414 111 345 76 241 c 1
 44 249 l 1
 82 370 162 458 229 458 c 0
 309 458 315 381 291 308 c 2
EndSplineSet
Validated: 33
Layer: 2
SplineSet
271 612 m 4
 271 640 296 669 333 669 c 4
 360 669 387 650 387 620 c 4
 387 592 362 563 325 563 c 4
 298 563 271 582 271 612 c 4
140 121 m 14
 201 308 l 6
 224 378 233 414 200 414 c 7
 169 414 113 344 78 240 c 13
 48 240 l 21
 87 366 157 458 229 458 c 7
 303 458 318 391 291 308 c 6
 258 208 l 6
 191 7 115 -201 -17 -201 c 4
 -89 -201 -125 -152 -125 -114 c 4
 -125 -79 -102 -51 -70 -51 c 4
 -39 -51 -15 -71 -15 -107 c 4
 -15 -127 -25 -141 -25 -153 c 4
 -25 -161 -21 -169 -12 -169 c 4
 48 -169 83 -52 140 121 c 14
EndSplineSet
EndChar

StartChar: y
Encoding: 121 121 26
Width: 521
VWidth: 0
Flags: HMW
LayerCount: 5
Fore
SplineSet
278 60 m 1
 242 21 201 8 173 8 c 0
 103 8 73 90 115 201 c 2
 157 312 l 2
 185 385 195 418 158 418 c 0
 131 418 95 358 76 301 c 1
 47 309 l 1
 73 392 122 462 190 462 c 0
 260 462 279 395 247 312 c 2
 205 201 l 2
 168 103 162 46 195 46 c 0
 255 46 303 117 332 208 c 2
 411 450 l 1
 501 450 l 1
 423 209 l 2
 362.431640625 21.8603515625 269 -225 116 -225 c 0
 61 -225 0 -194 0 -140 c 0
 0 -106 24 -81 55 -81 c 0
 88 -81 112 -105 112 -139 c 0
 112 -158 106 -167 106 -183 c 0
 106 -193 113 -198 121 -198 c 0
 174 -198 236.900390625 -90.2998046875 267 0 c 2
 287 60 l 1
 278 60 l 1
EndSplineSet
Validated: 33
Layer: 2
SplineSet
332 129 m 5
 324 129 l 5
 281 36 214 8 173 8 c 4
 103 8 73 90 115 201 c 6
 157 312 l 6
 184.802734375 385.061523438 195 418 158 418 c 4
 131 418 95 358 76 301 c 5
 47 309 l 5
 73 392 122 462 190 462 c 4
 260 462 278.631835938 395.125 247 312 c 6
 205 201 l 6
 168 103 162 46 195 46 c 4
 239 46 312.749023438 101.784179688 350 231 c 4
 332 129 l 5
265 0 m 6
 411 450 l 5
 501 450 l 5
 423 209 l 6
 362 22 286 -201 133 -201 c 4
 78 -201 17 -170 17 -116 c 4
 17 -82 41 -57 72 -57 c 4
 105 -57 129 -81 129 -115 c 4
 129 -134 123 -143 123 -159 c 4
 123 -169 130 -174 138 -174 c 4
 191 -174 234 -96 265 0 c 6
EndSplineSet
EndChar

StartChar: w
Encoding: 119 119 27
Width: 744
VWidth: 0
Flags: HMW
LayerCount: 5
Fore
SplineSet
344 136 m 1
 304 55 239 -12 186 -12 c 0
 91 -12 96 108 142 225 c 2
 175 312 l 2
 203 385 205 418 172 418 c 0
 139 418 91 369 69 302 c 1
 40 308 l 1
 66 391 124 462 200 462 c 0
 270 462 297 395 265 312 c 2
 229 216 l 2
 194 126 159 33 209 33 c 0
 260 33 345 161 377 281 c 2
 422 450 l 1
 511 450 l 1
 447 212 l 2
 424 118 415 34 466 34 c 0
 531 34 635 186 635 273 c 0
 635 294 627 308 612 333 c 0
 596 359 578 387 578 418 c 0
 578 448 600 475 624 475 c 0
 672 475 694 420 694 363 c 0
 694 205 565 -12 452 -12 c 0
 371 -12 341 48 354 136 c 1
 344 136 l 1
EndSplineSet
Validated: 33
Layer: 2
SplineSet
372 176 m 5
 336 72 249 -12 186 -12 c 7
 91 -12 96 108 142 225 c 6
 175 312 l 6
 203 385 205 418 172 418 c 7
 139 418 91 369 69 302 c 13
 40 308 l 21
 66 391 124 462 200 462 c 7
 270 462 297 395 265 312 c 6
 229 216 l 6
 194 126 159 33 209 33 c 4
 259 33 334 139 379 260 c 5
 372 176 l 5
441 450 m 5
 531 450 l 5
 454 212 l 6
 424 120 425 34 476 34 c 7
 555 34 650 176 650 270 c 4
 650 293 641 307 624 333 c 4
 606 359 586 387 586 420 c 4
 586 449 607 475 630 475 c 4
 680 475 705 417 705 355 c 4
 705 203 593 -12 462 -12 c 7
 354 -12 322.268554688 84.0458984375 368 225 c 6
 441 450 l 5
EndSplineSet
Layer: 3
SplineSet
360 176 m 5
 324 72 249 -12 186 -12 c 7
 91 -12 96 108 142 225 c 5
 175 312 l 6
 203 385 205 418 172 418 c 7
 139 418 91 369 69 302 c 13
 40 308 l 21
 66 391 124 462 200 462 c 7
 270 462 297 395 265 312 c 6
 229 216 l 5
 194 126 159 33 209 33 c 4
 259 33 328 139 373 260 c 5
 360 176 l 5
624 475 m 4
 672 475 694 420 694 363 c 4
 694 205 565 -12 452 -12 c 7
 344 -12 326 81 362 225 c 5
 422 450 l 5
 511 450 l 5
 447 212 l 5
 424 118 415 34 466 34 c 7
 531 34 635 186 635 273 c 4
 635 294 627 308 612 333 c 4
 596 359 578 387 578 418 c 4
 578 448 600 475 624 475 c 4
EndSplineSet
EndChar

StartChar: x
Encoding: 120 120 28
Width: 616
VWidth: 0
Flags: HMW
LayerCount: 5
Fore
SplineSet
346 246 m 1
 345 229 344 210 344 193 c 0
 344 91 368 38 406 38 c 0
 447 38 487 105 508 167 c 1
 541 162 l 1
 503 41 441 -12 382 -12 c 0
 298 -12 267 41 260 141 c 1
 203 68 131 -12 62 -12 c 0
 22 -12 -10 14 -10 51 c 0
 -10 81 11 109 43 109 c 0
 66 109 84 98 94 70 c 0
 101 50 116 45 136 62 c 0
 175 93 220 149 258 199 c 1
 259 223 260 251 260 274 c 0
 260 374 247 412 220 412 c 0
 189 412 133 345 112 282 c 1
 81 292 l 1
 113 396 194 462 255 462 c 0
 312 462 341 424 345 308 c 1
 408 394 459 462 534 462 c 0
 564 462 606 443 606 397 c 0
 606 365 580 338 548 338 c 0
 523 338 503 360 498 383 c 0
 492 409 475 405 458 390 c 0
 424 359 383 297 346 246 c 1
EndSplineSet
Validated: 33
Layer: 2
SplineSet
153.31640625 389.677734375 m 21
 460.618164062 60.5537109375 l 1029
16.1455078125 235.271484375 m 25
 543.822265625 216.844726562 l 25
 306.966796875 225.116210938 l 1049
314.681640625 450.125976562 m 17
 299.251953125 0.10546875 l 1025
352.547851562 446.290039062 m 17
 337.118164062 -3.73046875 l 1025
266.815429688 453.962890625 m 17
 251.38671875 3.943359375 l 1025
EndSplineSet
Layer: 3
SplineSet
65 -12 m 0
 25 -12 -7 14 -7 51 c 0
 -7 81 14 109 46 109 c 0
 69 109 87 98 97 70 c 0
 104 50 119 45 139 62 c 0
 189 102 248 182 292 240 c 0
 381 356 437 462 531 462 c 0
 561 462 603 443 603 397 c 0
 603 365 577 338 545 338 c 0
 520 338 500 360 495 383 c 0
 489 409 472 405 455 390 c 0
 413 352 361 267 318 213 c 0
 257 136 159 -12 65 -12 c 0
345 224 m 0
 340 102 364 38 406 38 c 0
 447 38 487 105 508 167 c 1
 541 162 l 1
 503 41 441 -12 382 -12 c 0
 277 -12 254 72 259 227 c 0
 263 363 251 412 220 412 c 0
 189 412 133 345 112 282 c 1
 81 292 l 1
 113 396 194 462 255 462 c 0
 324 462 352 407 345 224 c 0
EndSplineSet
Layer: 4
SplineSet
65 -12 m 4
 25 -12 -7 14 -7 51 c 4
 -7 81 14 109 46 109 c 4
 69 109 87 98 97 70 c 4
 104 50 119 45 139 62 c 4
 189 102 248 182 292 240 c 4
 381 356 437 462 531 462 c 4
 561 462 603 443 603 397 c 4
 603 365 577 338 545 338 c 4
 520 338 500 360 495 383 c 4
 489 409 472 405 455 390 c 4
 413 352 361 267 318 213 c 4
 257 136 159 -12 65 -12 c 4
345 224 m 4
 340 102 364 38 406 38 c 4
 447 38 487 105 508 167 c 5
 541 162 l 5
 503 41 441 -12 382 -12 c 4
 277 -12 254 72 259 227 c 4
 263 363 251 412 220 412 c 4
 189 412 133 345 112 282 c 5
 81 292 l 5
 113 396 194 462 255 462 c 4
 324 462 352 407 345 224 c 4
EndSplineSet
EndChar

StartChar: exclam
Encoding: 33 33 51
Width: 297
VWidth: 1000
Flags: HMW
LayerCount: 5
Fore
SplineSet
20 55 m 0
 20 89 48 117 82 117 c 0
 116 117 144 89 144 55 c 0
 144 21 116 -7 82 -7 c 0
 48 -7 20 21 20 55 c 0
271 692 m 0
 310 692 327 662 327 627 c 0
 327 603 319 576 307 552 c 0
 262 464 208 396 149 217 c 1
 117 227 l 1
 173 400 175 501 192 592 c 0
 202 650 231 692 271 692 c 0
EndSplineSet
Validated: 1
Layer: 2
SplineSet
20 55 m 4
 20 89 48 117 82 117 c 4
 116 117 144 89 144 55 c 4
 144 21 116 -7 82 -7 c 4
 48 -7 20 21 20 55 c 4
147 218 m 5
 119 226 l 5
 166 371 161 450 178 541 c 4
 190 608 224 654 273 639 c 4
 322 624 315 558 288 505 c 4
 243 417 195 364 147 218 c 5
EndSplineSet
EndChar

StartChar: dollar
Encoding: 36 36 53
Width: 441
VWidth: 0
Flags: HMW
LayerCount: 5
Fore
SplineSet
18 104 m 0
 18 138 44 164 76 164 c 0
 107 164 133 139 133 107 c 0
 133 91 126 76 116 66 c 0
 98 49 107 35 125 29 c 0
 139 24 155 21 171 21 c 0
 219 21 277 48 277 91 c 0
 277 131 239 159 182 199 c 0
 136 231 96 270 96 333 c 0
 96 422 202 462 290 462 c 0
 362 462 423 421 423 367 c 0
 423 335 398 308 368 308 c 0
 337 308 312 332 312 363 c 0
 312 378 317 391 326 400 c 0
 339 414 328 427 318 428 c 0
 309 430 298 431 289 431 c 0
 233 431 193 411 193 371 c 0
 193 340 235 307 269 283 c 0
 330 240 378 195 378 137 c 0
 378 51 282 -12 175 -12 c 0
 92 -12 18 44 18 104 c 0
EndSplineSet
Validated: 33
Layer: 2
SplineSet
19 108 m 4
 19 141.667 45 168 77 168 c 4
 108 168 134 143 134 111 c 4
 134 82.8551 113.887 60.1252 87.9495 55.057 c 5
 107.301 36.7341 138.748 25 172 25 c 4
 220 25 277 48 277 91 c 4
 277 131 239 159 182 199 c 4
 136.132 231.188 94 266 94 329 c 4
 94 418 200 458 288 458 c 4
 360.333 458 421 417.333 421 363 c 4
 421 331 396 304 366 304 c 4
 335 304 310 328 310 359 c 4
 310 386.13 328.147 406.897 353.706 411.911 c 5
 340.891 420.402 312.113 427 287 427 c 4
 231 427 191 407 191 367 c 4
 191 336 235 307 269 283 c 4
 329.972 239.961 378 195 378 137 c 4
 378 51 283 -8 176 -8 c 4
 92.9327 -8 19 48 19 108 c 4
EndSplineSet
EndChar

StartChar: percent
Encoding: 37 37 54
Width: 804
VWidth: 0
Flags: HMW
LayerCount: 5
Fore
SplineSet
166 0 m 1
 46 0 l 1
 148 312 l 2
 170 382 179 415 155 415 c 0
 128 415 88 368 67 304 c 1
 33 308 l 1
 61 399 122 462 191 462 c 0
 236 462 266 435 275 393 c 0
 276 385 293 380 300 387 c 0
 342 434 387 462 425 462 c 0
 472 462 503 436 514 392 c 0
 516 383 530 377 536 384 c 0
 579 433 626 462 666 462 c 0
 749 462 782 379 740 269 c 2
 690 138 l 2
 662 65 656 34 681 34 c 0
 710 34 751 89 770 146 c 1
 802 138 l 1
 773 44 716 -12 639 -12 c 0
 569 -12 540 55 572 138 c 2
 623 269 l 2
 661 367 666 423 639 423 c 0
 605 423 533 360 504 269 c 2
 416 0 l 1
 296 0 l 1
 384 269 l 2
 416 369 426 423 398 423 c 0
 363 423 278 342 246 246 c 2
 166 0 l 1
EndSplineSet
Validated: 33
Layer: 2
SplineSet
738 265 m 6
 691 142 l 6
 663.249 69.376 655.5 36 681 36 c 7
 709.5 36 753 93 772 150 c 13
 802 150 l 21
 776 67 722 -8 640 -8 c 7
 570 -8 540.741 59.3379 573 142 c 6
 621 265 l 6
 659.082 362.584 664.5 419 637 419 c 4
 603 419 509 346 456 174 c 13
 427 174 l 21
 471 335.5 583 458 664 458 c 7
 747 458 780.769 374.594 738 265 c 6
217 174 m 13
 188 174 l 21
 232 335.5 343.5 458 423 458 c 7
 506 458 538 377 502 265 c 6
 416 0 l 29
 296 0 l 29
 382 265 l 6
 414.675 364.525 423.5 419 396 419 c 4
 362.5 419 270 346 217 174 c 13
166 0 m 13
 46 0 l 29
 146 308 l 6
 168 378 178 414 154 414 c 7
 121.5 414 84 357 65 300 c 13
 35 300 l 21
 61 383 115 458 189 458 c 7
 259 458 293 391 266 308 c 6
 166 0 l 13
EndSplineSet
EndChar

StartChar: ampersand
Encoding: 38 38 55
Width: 502
VWidth: 1000
Flags: HMW
LayerCount: 5
Fore
SplineSet
317 160 m 0
 317 188 346 218 374 218 c 0
 408 218 426 174 426 138 c 0
 426 54 365 -12 274 -12 c 0
 211 -12 166 36 101 36 c 0
 70 36 44 17 25 0 c 1
 -20 0 l 1
 -20 8 l 1
 319 315 l 2
 326 322 319 343 306 343 c 0
 263 344 213 349 182 352 c 0
 174 353 159 345 155 337 c 2
 120 257 l 1
 90 265 l 1
 162 457 l 1
 253 443 398 442 489 457 c 1
 503 435 l 1
 181 142 l 2
 175 137 176 118 183 117 c 0
 231 111 278 81 317 81 c 0
 328 81 338 81 348 84 c 0
 378 91 365 105 345 115 c 0
 329 123 317 139 317 160 c 0
EndSplineSet
Validated: 33
Layer: 2
SplineSet
318 161 m 4
 318 189 340 212 368 212 c 4
 402 212 426 178 426 142 c 4
 426 58 365 -8 274 -8 c 4
 211 -8 166 36 101 36 c 4
 70 36 44 17 25 0 c 5
 -29 0 l 5
 41 61 91 119 161 119 c 4
 216 119 273 85 317 85 c 4
 344 85 368 88 382 112 c 5
 351 104 318 125 318 161 c 4
496 428 m 5
 25 0 l 13
 -29 0 l 29
 346 339 l 21
 291 331 189 344 153 349 c 13
 113 257 l 29
 83 258 l 29
 155 450 l 21
 246 436 391 435 482 450 c 5
 496 428 l 5
EndSplineSet
EndChar

StartChar: quotesingle
Encoding: 39 39 56
Width: 255
VWidth: 0
Flags: HMW
LayerCount: 5
Fore
SplineSet
211 664 m 0
 259 664 285 620 285 580 c 0
 285 473 188 406 82 366 c 9
 70 394 l 1
 131 416 213 466 213 515 c 0
 213 524 205 529 194 533 c 0
 168 541 146 568 146 599 c 0
 146 638 176 664 211 664 c 0
EndSplineSet
Validated: 1
EndChar

StartChar: parenleft
Encoding: 40 40 57
Width: 355
VWidth: 2048
Flags: HMW
LayerCount: 5
Fore
SplineSet
141 117 m 0
 141 20 169 -67 206 -140 c 1
 176 -140 l 1
 117 -50 70 59 70 180 c 0
 70 419 211 589 405 678 c 1
 405 647 l 1
 258 554 141 366 141 117 c 0
EndSplineSet
Validated: 1
EndChar

StartChar: parenright
Encoding: 41 41 58
Width: 355
VWidth: 2048
Flags: HMW
LayerCount: 5
Fore
SplineSet
214 421 m 0
 214 518 186 605 149 678 c 1
 179 678 l 1
 238 588 285 479 285 358 c 0
 285 119 144 -51 -50 -140 c 1
 -50 -109 l 1
 97 -16 214 172 214 421 c 0
EndSplineSet
Validated: 1
EndChar

StartChar: asterisk
Encoding: 42 42 59
Width: 1024
VWidth: 1879
Flags: HM
LayerCount: 5
Layer: 2
SplineSet
85 89 m 5
 101 57 151 26 213 26 c 4
 298 26 360 100 360 206 c 4
 360 285 309 342 221 353 c 5
 228 382 l 5
 373 369 477 407 477 558 c 4
 477 622 438 658 379 658 c 4
 323 658 287 634 276 627 c 5
 309 623 337 598 337 563 c 4
 337 528 308 499 266 499 c 4
 224 499 202 533 202 570 c 4
 202 641 303 692 397 692 c 4
 496 692 588 628 588 538 c 4
 588 428 481 360 360 349 c 5
 428 314 482 254 482 181 c 4
 482 91 400 -12 239 -12 c 4
 115 -12 30 58 30 146 c 4
 30 208 71 236 110 236 c 4
 151 236 188 204 188 162 c 4
 188 114 147 73 85 89 c 5
EndSplineSet
EndChar

StartChar: comma
Encoding: 44 44 61
Width: 255
VWidth: 0
Flags: HMW
LayerCount: 5
Fore
SplineSet
101 135 m 0
 149 135 175 91 175 51 c 0
 175 -56 78 -123 -28 -163 c 9
 -40 -135 l 1
 21 -113 103 -63 103 -14 c 0
 103 -5 95 0 84 4 c 0
 58 12 36 39 36 70 c 0
 36 109 66 135 101 135 c 0
EndSplineSet
Validated: 1
EndChar

StartChar: hyphen
Encoding: 45 45 62
Width: 461
VWidth: 0
Flags: HMW
LayerCount: 5
Fore
SplineSet
96 294 m 5
 392 294 l 5
 364 209 l 5
 68 209 l 5
 96 294 l 5
EndSplineSet
Validated: 1
EndChar

StartChar: slash
Encoding: 47 47 63
Width: 328
VWidth: 0
Flags: HMW
LayerCount: 5
Fore
SplineSet
306 754 m 1
 353 754 l 1
 6 -123 l 1
 -41 -123 l 1
 306 754 l 1
EndSplineSet
Validated: 1
EndChar

StartChar: zero
Encoding: 48 48 64
Width: 590
VWidth: 3686
Flags: HMW
HStem: -7 40<175 272> 643 40<347 441>
VStem: 59 95<61 309> 460 99<365 613>
LayerCount: 5
Fore
SplineSet
406 659 m 0
 346 659 271 573 218 408 c 2
 183 303 l 2
 168 257 151 188 151 130 c 0
 151 70 169 21 224 21 c 0
 284 21 359 105 410 270 c 2
 443 375 l 2
 458 421 475 492 475 551 c 0
 475 611 458 659 406 659 c 0
60 217 m 0
 60 458 249 692 405 692 c 0
 515 692 570 587 570 461 c 0
 570 218 381 -12 227 -12 c 0
 115 -12 60 88 60 217 c 0
EndSplineSet
Validated: 1
EndChar

StartChar: one
Encoding: 49 49 65
Width: 493
VWidth: 0
Flags: HMW
HStem: 0 41<64 150 299 367> 639 37G<348 480> 639 37G<348 480>
LayerCount: 5
Fore
SplineSet
278 85 m 2x80
 267 50 278 35 313 35 c 2
 388 35 l 1
 378 0 l 1
 60 0 l 1
 70 35 l 1
 115 35 l 2
 150 35 169 50 179 85 c 2
 304 502 l 2
 310 521 303 539 279 524 c 2
 152 437 l 1
 131 465 l 1
 378 680 l 1
 448 680 l 1
 278 85 l 2x80
EndSplineSet
Validated: 33
EndChar

StartChar: two
Encoding: 50 50 66
Width: 556
VWidth: 1879
Flags: HMW
LayerCount: 5
Fore
SplineSet
247 584 m 0
 276 574 294 544 294 515 c 0
 294 474 264 442 223 442 c 0
 181 442 147 478 147 533 c 0
 147 614 244 692 358 692 c 0
 472 692 552 624 552 530 c 0
 552 380 409 330 282 260 c 0
 226 228 157 181 115 135 c 1
 126 138 140 139 151 139 c 0
 202 139 247 82 316 82 c 0
 374 82 404 111 429 188 c 1
 461 182 l 1
 454 98 398 -12 290 -12 c 0
 198 -12 164 64 107 64 c 0
 70 64 37 39 14 -11 c 1
 -20 0 l 1
 24 119 127 203 237 283 c 0
 361 373 451 425 451 533 c 0
 451 617 401 655 339 655 c 0
 304 655 269 645 243 627 c 0
 223 613 221 594 247 584 c 0
EndSplineSet
Validated: 33
EndChar

StartChar: three
Encoding: 51 51 67
Width: 568
VWidth: 1879
Flags: HMW
LayerCount: 5
Fore
SplineSet
351 343 m 1
 422 320 473 248 473 181 c 0
 473 91 395 -12 234 -12 c 0
 110 -12 25 58 25 146 c 0
 25 208 66 236 105 236 c 0
 146 236 183 204 183 162 c 0
 183 130 165 101 134 90 c 0
 110 81 96 63 129 45 c 0
 151 33 178 26 208 26 c 0
 293 26 363 100 363 206 c 0
 363 285 301 342 213 353 c 1
 220 382 l 1
 365 369 468 407 468 558 c 0
 468 622 421 658 364 658 c 0
 349 658 334 656 322 653 c 0
 290 645 278 630 300 610 c 0
 313 599 322 582 322 563 c 0
 322 528 293 499 251 499 c 0
 209 499 187 533 187 570 c 0
 187 641 288 692 382 692 c 0
 481 692 571 628 571 538 c 0
 571 433 462 362 351 354 c 1
 351 343 l 1
EndSplineSet
Validated: 33
EndChar

StartChar: six
Encoding: 54 54 68
Width: 574
VWidth: 1879
Flags: HMW
LayerCount: 5
Fore
SplineSet
439 573 m 0
 439 590 445 602 451 613 c 0
 467 642 457 657 421 657 c 0
 325 657 236 498 197 369 c 1
 239 395 287 413 338 413 c 0
 434 413 493 347 493 255 c 0
 493 106 381 -12 243 -12 c 0
 117 -12 66 102 66 221 c 0
 66 455 259 692 421 692 c 0
 506 692 571 653 571 578 c 0
 571 543 544 508 502 508 c 0
 464 508 439 539 439 573 c 0
392 269 m 0
 392 322 365 370 308 370 c 0
 264 370 187 342 171 287 c 2
 152 221 l 2
 130 140 143 28 226 28 c 0
 325 28 392 144 392 269 c 0
EndSplineSet
Validated: 33
Layer: 2
SplineSet
430 573 m 4xfa
 430 619 468 638 485 645 c 5
 470 653 449 657 421 657 c 4
 325 657 239 498 200 369 c 5
 242 395 287 413 338 413 c 4
 434 413 497 347 497 255 c 4xfc
 497 106 381 -12 243 -12 c 4
 117 -12 60 102 60 221 c 4
 60 455 251 692 421 692 c 4
 506 692 574 650 574 575 c 4
 574 536 548 502 502 502 c 4
 460 502 430 534 430 573 c 4xfa
386 269 m 4
 386 322 365 370 308 370 c 4
 264 370 190 342 174 287 c 6
 155 221 l 6
 133 140 143 28 226 28 c 4
 325 28 386 144 386 269 c 4
EndSplineSet
EndChar

StartChar: nine
Encoding: 57 57 69
Width: 587
VWidth: 1879
Flags: HMW
HStem: -7 41<123 242> 271 48<258 379> 650 46<321 438>
VStem: 30 147<50 174> 122 115<327 568> 465 103<379 628>
LayerCount: 5
Fore
SplineSet
170 109 m 0xf4
 170 91 166 74 150 56 c 0
 137 41 145 23 174 23 c 0xf4
 289 23 377 179 416 308 c 1
 374 282 333 267 280 267 c 0
 184 267 128 333 128 425 c 0xec
 128 574 245 692 374 692 c 0
 505 692 561 605 561 488 c 0
 561 282 370 -12 177 -12 c 0
 98 -12 31 29 31 91 c 0
 31 141 68 173 107 173 c 0
 146 173 170 146 170 109 c 0xf4
226 411 m 0
 226 358 253 312 310 312 c 0
 358 312 428 340 444 395 c 2
 463 460 l 2
 485 533 477 653 387 653 c 0
 291 653 226 528 226 411 c 0
EndSplineSet
Validated: 33
Layer: 2
SplineSet
177 110 m 4xf4
 177 80 158 43 113 37 c 5xec
 126 28 158 23 174 23 c 4xf4
 289 23 373 179 412 308 c 5
 370 282 333 267 280 267 c 4
 184 267 122 333 122 425 c 4xec
 122 574 245 692 374 692 c 4
 505 692 567 605 567 488 c 4
 567 282 379 -12 177 -12 c 4
 98 -12 30 30 30 92 c 4
 30 142 65 181 107 181 c 4
 149 181 177 149 177 110 c 4xf4
232 411 m 4
 232 358 253 312 310 312 c 4
 358 312 424 340 440 395 c 6
 459 460 l 6
 481 533 477 653 387 653 c 4
 291 653 232 528 232 411 c 4
EndSplineSet
EndChar

StartChar: less
Encoding: 60 60 72
Width: 467
VWidth: 0
Flags: HMW
LayerCount: 5
Fore
SplineSet
567 787 m 0
 651 787 707 725 707 665 c 0
 707 609 672 579 629 579 c 0
 586 579 554 609 554 652 c 0
 554 699 589 710 589 733 c 0
 589 744 581 753 565 753 c 0
 481 753 431 629 401 527 c 2
 389 488 l 2
 386 476 394 450 412 450 c 2
 545 450 l 1
 539 408 l 1
 366 408 l 1
 302 192 l 2
 225 -69 87 -237 -103 -237 c 0
 -193 -237 -245 -179 -245 -116 c 0
 -245 -57 -210 -17 -162 -17 c 0
 -119 -17 -83 -49 -83 -93 c 2
 -83 -94 l 2
 -83 -138 -122 -155 -122 -175 c 0
 -122 -192 -108 -200 -96 -200 c 0
 -27 -200 37 -130 82 23 c 2
 185 370 l 2
 189 385 179 408 157 408 c 2
 36 408 l 1
 42 450 l 1
 212 450 l 1
 292 666 408 787 567 787 c 0
EndSplineSet
Validated: 33
Layer: 2
SplineSet
44 408 m 1
 50 450 l 1
 553 450 l 1
 547 408 l 1
 44 408 l 1
577 787 m 0
 661 787 717 725 717 665 c 0
 717 609 682 579 639 579 c 0
 596 579 564 609 564 652 c 0
 564 699 599 710 599 733 c 0
 599 744 591 753 575 753 c 0
 491 753 439 628 406 527 c 2
 297 192 l 2
 213 -67 77 -237 -113 -237 c 0
 -203 -237 -255 -179 -255 -116 c 0
 -255 -57 -220 -17 -172 -17 c 0
 -129 -17 -93 -49 -93 -93 c 0
 -93 -94 l 0
 -93 -138 -132 -155 -132 -175 c 0
 -132 -192 -118 -200 -106 -200 c 0
 -37 -200 27 -130 77 23 c 2
 186 358 l 2
 274 628 397 787 577 787 c 0
EndSplineSet
Layer: 3
SplineSet
36 408 m 5
 42 450 l 5
 545 450 l 5
 539 408 l 5
 36 408 l 5
567 787 m 0
 651 787 707 725 707 665 c 0
 707 609 672 579 629 579 c 0
 586 579 554 609 554 652 c 0
 554 699 589 710 589 733 c 0
 589 744 581 753 565 753 c 0
 481 753 431 629 401 527 c 2
 302 192 l 2
 224.848376575 -69.0686247193 87 -237 -103 -237 c 0
 -193 -237 -245 -179 -245 -116 c 0
 -245 -57 -210 -17 -162 -17 c 0
 -119 -17 -83 -49 -83 -93 c 0
 -83 -94 l 0
 -83 -138 -122 -155 -122 -175 c 0
 -122 -192 -108 -200 -96 -200 c 0
 -27 -200 36.7098487208 -130.254552309 82 23 c 2
 181 358 l 2
 261.715675348 631.12880042 387 787 567 787 c 0
EndSplineSet
Layer: 4
SplineSet
-41 390 m 6
 -101 173 l 1030
EndSplineSet
EndChar

StartChar: greater
Encoding: 62 62 73
Width: 467
VWidth: 0
Flags: HMW
LayerCount: 5
Fore
SplineSet
567 787 m 0
 651 787 707 725 707 665 c 0
 707 609 672 579 629 579 c 0
 586 579 554 609 554 652 c 0
 554 699 589 710 589 733 c 0
 589 744 581 753 565 753 c 0
 481 753 431 629 401 527 c 2
 389 488 l 2
 386 476 394 450 412 450 c 2
 545 450 l 1
 539 408 l 1
 366 408 l 1
 282 124 l 2
 205 -137 67 -305 -123 -305 c 0
 -213 -305 -265 -247 -265 -184 c 0
 -265 -125 -230 -85 -182 -85 c 0
 -139 -85 -103 -117 -103 -161 c 2
 -103 -162 l 2
 -103 -206 -142 -223 -142 -243 c 0
 -142 -260 -128 -268 -116 -268 c 0
 -47 -268 17 -198 62 -45 c 2
 185 370 l 2
 189 385 179 408 157 408 c 2
 36 408 l 1
 42 450 l 1
 212 450 l 1
 292 666 408 787 567 787 c 0
EndSplineSet
Validated: 33
EndChar

StartChar: question
Encoding: 63 63 74
Width: 377
VWidth: 1000
Flags: HMW
LayerCount: 5
Fore
SplineSet
60 55 m 0
 60 89 88 117 122 117 c 0
 156 117 184 89 184 55 c 0
 184 21 156 -7 122 -7 c 0
 88 -7 60 21 60 55 c 0
192 221 m 0
 229 221 262 249 280 284 c 1
 310 272 l 1
 288 224 237 190 183 190 c 0
 130 190 89 233 89 291 c 0
 89 357 133.213867188 407.345703125 204.048828125 462.68359375 c 0
 276.3984375 519.205078125 316 561 316 605 c 0
 316 631 294 655 260 655 c 0
 222 655 168 631 156 564 c 1
 125 572 l 1
 137 644 199 692 276 692 c 0
 338 692 397 656 397 590 c 0
 397 520 348.8984375 480.569335938 281.951171875 421.31640625 c 0
 210.211914062 357.822265625 155 316 155 268 c 0
 155 239 167 221 192 221 c 0
EndSplineSet
Validated: 1
EndChar

StartChar: at
Encoding: 64 64 75
Width: 547
VWidth: 0
Flags: HMW
LayerCount: 5
Fore
SplineSet
173 414 m 0
 142 414 101 344 66 240 c 1
 36 240 l 1
 75 366 130 458 202 458 c 0
 250 458 272 425 278 381 c 0
 279 374 294 362 304 374 c 0
 347 428 396 463 444 463 c 0
 508 463 547 420 547 369 c 0
 547 312 513 274 475 274 c 0
 444 274 415 300 415 339 c 0
 415 374 445 395 445 408 c 0
 445 420 435 425 425 425 c 0
 358 425 274 292 244 200 c 2
 179 0 l 1
 89 0 l 1
 174 261 l 2
 188 305 213 414 173 414 c 0
EndSplineSet
Validated: 33
Layer: 2
SplineSet
422.342 351.927 m 0
 422.342 368.5 429.605 385.265 429.605 398.065 c 0
 429.605 409.689 424.923 416.829 414.899 416.829 c 0
 341.741 416.829 256.342 251.025 228 166 c 9
 198 166 l 17
 246 319 346 463 444 463 c 0
 514 463 547 407 547 366 c 0
 547 322 521 287 484 287 c 0
 452.996 287 422.342 312.683 422.342 351.927 c 0
173 414 m 3
 142 414 101 344 66 240 c 9
 36 240 l 17
 75 366 130 458 202 458 c 3
 294 458 289 338 262 255 c 2
 179 0 l 9
 89 0 l 17
 174 261 l 2
 188 305 213 414 173 414 c 3
EndSplineSet
Layer: 3
SplineSet
173 414 m 7
 142 414 101 344 66 240 c 13
 36 240 l 21
 75 366 130 458 202 458 c 7
 294 458 289 338 262 255 c 6
 179 0 l 13
 89 0 l 21
 174 261 l 6
 188 305 213 414 173 414 c 7
460 463 m 4
 519 463 547 420 547 369 c 4
 547 312 513 274 475 274 c 4
 444 274 415 300 415 339 c 4
 415 361 425 378 434 390 c 4
 453 417 439 425 411 413 c 4
 336 381 247 217 222 141 c 13
 192 141 l 21
 240 294 362 463 460 463 c 4
EndSplineSet
EndChar

StartChar: A
Encoding: 65 65 76
Width: 653
VWidth: 0
Flags: W
HStem: 0 35<-70 20.9242 99.9376 175 338 419.443 551.526 623> 217 35<200 413> 672 20G<400.229 463.457>
LayerCount: 5
Fore
SplineSet
200 252 m 1
 413 252 l 1
 380 559 l 1
 200 252 l 1
179 217 m 1
 120 117 l 2
 79 47 98 35 158 35 c 2
 185 35 l 1
 175 0 l 1
 -80 0 l 1
 -70 35 l 1
 -45 35 l 2
 -10 35 27 36 73 116 c 2
 412 692 l 1
 461 692 l 1
 533 106 l 2
 541 42 566 35 599 35 c 2
 633 35 l 1
 623 0 l 1
 328 0 l 1
 338 35 l 1
 366 35 l 2
 415 35 434 50 428 109 c 2
 417 217 l 1
 179 217 l 1
EndSplineSet
Validated: 33
Layer: 2
SplineSet
428 217 m 1
 158 217 l 1
 181 252 l 1
 426 252 l 1
 428 217 l 1
468.508789062 634.514648438 m 2
 533.387695312 108.01171875 l 2
 537.858398438 71.88671875 552.923828125 61.986328125 585.141601562 75.662109375 c 2
 621.961914062 91.2919921875 l 1
 626.43359375 55.166015625 l 1
 364.088867188 -56.1923828125 l 1
 359.6171875 -20.0673828125 l 1
 396.438476562 -4.4384765625 l 2
 428.65625 9.23828125 437.28515625 30.46875 432.813476562 66.5947265625 c 6
 368.85546875 593.489257812 l 6
 364.384765625 629.61328125 351.3984375 639.123046875 319.180664062 625.447265625 c 2
 282.361328125 609.818359375 l 1
 277.889648438 645.944335938 l 1
 540.233398438 757.301757812 l 1
 544.705078125 721.176757812 l 1
 507.883789062 705.547851562 l 2
 475.666015625 691.872070312 464.037109375 670.640625 468.508789062 634.514648438 c 2
-3.708984375 -92.78515625 m 1
 -38.1748046875 -72.482421875 l 1
 430.791992188 723.6640625 l 1
 465.256835938 703.362304688 l 1
 -3.708984375 -92.78515625 l 1
EndSplineSet
EndChar

StartChar: B
Encoding: 66 66 77
Width: 671
VWidth: 0
Flags: W
HStem: 0 35<0 76.8871 199.02 359.959> 348 36<281 421.712> 645 35<165 243.123 358.62 481.91>
VStem: 475 116<134.547 295.969> 509 112<473.581 612.854>
LayerCount: 5
Fore
SplineSet
281 384 m 1xe8
 337 384 l 2
 425 384 474 419 501 514 c 0
 506 532 509 548 509 563 c 0
 509 614 479 644 431 644 c 2
 416 644 l 2
 379 644 352 634 344 604 c 2
 281 384 l 1xe8
457 362 m 1
 542 350 591 291 591 219 c 0xf0
 591 210 590 200 588 190 c 0
 562 43 431 0 266 0 c 2
 -10 0 l 1
 0 35 l 1
 30 35 l 2
 65 35 84 50 94 85 c 2
 241 595 l 2
 243 603 245 610 245 616 c 0
 245 636 232 645 205 645 c 2
 155 645 l 1
 165 680 l 1
 430 680 l 2
 548 680 621 626 621 543 c 0
 621 534 620 524 618 514 c 0
 607 451 558 390 457 374 c 1
 457 362 l 1
267 36 m 2
 399 36 475 113 475 236 c 0
 475 314 433 348 343 348 c 2
 270 348 l 1
 192 76 l 2
 191 73 191 71 191 69 c 0
 191 43 235 36 254 36 c 2
 267 36 l 2
EndSplineSet
Validated: 1
Layer: 2
SplineSet
165 680 m 1xfc
 430 680 l 2
 561 680 637 613 618 514 c 0
 600 417 502 348 335 348 c 2
 270 348 l 1
 192 76 l 2
 183 44 233 36 254 36 c 2
 276 36 l 1
 266 0 l 1
 -10 0 l 1
 0 35 l 1
 30 35 l 2
 65 35 84 50 94 85 c 2
 241 595 l 2
 251 630 240 645 205 645 c 2
 155 645 l 1
 165 680 l 1xfc
266 0 m 2
 247 0 l 1
 257 36 l 1
 267 36 l 2
 383 36 456 99 471 190 c 0
 489 300 449 348 343 348 c 2
 333 348 l 1
 344 384 l 1
 363 384 l 2
 495 384 610.446289062 314.920898438 588 190 c 0xfa
 561.661132812 43.419921875 431 0 266 0 c 2
281 384 m 1
 337 384 l 2
 425 384 474 419 501 514 c 0xfc
 524 594 493 644 431 644 c 2
 416 644 l 2
 379 644 352 634 344 604 c 2
 281 384 l 1
EndSplineSet
EndChar

StartChar: C
Encoding: 67 67 78
Width: 621
VWidth: 0
Flags: W
HStem: -12 41<217.997 372.211> 658 34<366.848 479.554>
VStem: 544 43<436 460.797>
LayerCount: 5
Fore
SplineSet
284 -12 m 0
 143 -12 60 100 60 237 c 0
 60 279 67 324 80 371 c 0
 126 536 267 692 415 692 c 0
 467 692 507 669 529 650 c 4
 572 612 585 644 612 678 c 6
 623 692 l 5
 661 692 l 4
 587 436 l 4
 544 436 l 5
 564 588 493 658 421 658 c 0
 318 658 251 494 225 402 c 2
 198 306 l 2
 166 190 153 29 281 29 c 0
 391 29 451 98 512 201 c 1
 547 193 l 1
 485 68 397 -12 284 -12 c 0
EndSplineSet
Validated: 33
Layer: 2
SplineSet
516 523 m 0
 516 595 494 658 421 658 c 4
 318 658 245 494 219 402 c 6
 192 306 l 6
 180 265 170 210 170 160 c 4
 170 88 192 26 267 26 c 4
 368 26 437 182 464 273 c 2
 492 369 l 2
 504 410 516 469 516 523 c 0
444 690 m 4
 563 673 626 573 626 442 c 0
 626 399 620 353 606 306 c 0
 559 141 420 -12 272 -12 c 4
 263 -12 253 -11 243 -10 c 4
 123 7 60 106 60 237 c 4
 60 279 67 324 80 371 c 4
 127 536 267 692 415 692 c 4
 425 692 434 691 444 690 c 4
EndSplineSet
EndChar

StartChar: D
Encoding: 68 68 79
Width: 699
VWidth: 0
Flags: W
HStem: 0 35<0 76.8871 202.391 347.56> 645 35<165 243.123 367.846 504.477>
VStem: 573 106<353.684 540.455>
LayerCount: 5
Fore
SplineSet
165 680 m 1
 424 680 l 2
 595 680 679 567 679 422 c 0
 679 395 677 368 671 340 c 0
 635 156 476 0 260 0 c 2
 -10 0 l 1
 0 35 l 1
 30 35 l 2
 65 35 84 50 94 85 c 2
 241 595 l 2
 243 603 245 610 245 616 c 0
 245 636 232 645 205 645 c 2
 155 645 l 1
 165 680 l 1
261 36 m 2
 401 36 484 119 547 340 c 0
 565 402 573 452 573 492 c 0
 573 607 510 644 435 644 c 2
 428 644 l 2
 408 644 357 636 348 604 c 2
 197 76 l 2
 196 73 196 70 196 68 c 0
 196 43 235 36 254 36 c 2
 261 36 l 2
EndSplineSet
Validated: 1
EndChar

StartChar: F
Encoding: 70 70 80
Width: 647
VWidth: 0
Flags: W
HStem: 0 35<0 76.8871 192.05 279> 337 35<277 364.198> 644 36<165 243.232 361.002 553.547>
VStem: 382 33<175 199.903> 479 33<487.097 512> 610 29<445 480.093>
LayerCount: 5
Fore
SplineSet
-10 0 m 1
 0 35 l 1
 30 35 l 2
 65 35 84 50 94 85 c 2
 241 595 l 2
 251 630 240 645 205 645 c 2
 155 645 l 1
 165 680 l 1
 341 680 513 680 687 680 c 1
 639 445 l 1
 610 445 l 1
 619 571 586 644 482 644 c 2
 419 644 l 2
 389 644 349.908203125 628.025390625 343 604 c 2
 277 372 l 1
 340 372 l 2
 400 372 446.036132812 424.7421875 479 512 c 1
 512 512 l 1
 415 175 l 1
 382 175 l 1
 402.884765625 279.422851562 380 337 317 337 c 2
 267 337 l 1
 194 85 l 2
 184 50 194 35 229 35 c 2
 289 35 l 1
 279 0 l 1
 -10 0 l 1
EndSplineSet
Validated: 33
EndChar

StartChar: G
Encoding: 71 71 81
Width: 655
VWidth: 0
Flags: W
HStem: -12 38<210.251 335.27> 323 35<393 470.589 584.474 662> 658 34<366.571 488.256>
VStem: 60 110<119.759 306.914> 457 29<-12 7> 558 43<436 460.797>
LayerCount: 5
Fore
SplineSet
558 436 m 1
 580 600 498 658 421 658 c 0
 318 658 245 494 219 402 c 2
 192 306 l 2
 180 265 170 210 170 160 c 0
 170 88 192 26 267 26 c 0
 327 26 411 74 444 188 c 2
 469 273 l 2
 479 308 468 323 433 323 c 2
 383 323 l 1
 393 358 l 1
 672 358 l 1
 662 323 l 1
 632 323 l 2
 597 323 577 308 567 273 c 2
 486 -12 l 1
 457 -12 l 1
 455 7 l 2
 447 74 428 64 389 37 c 0
 350 10 304 -12 255 -12 c 0
 132 -12 60 112 60 237 c 0
 60 279 67 324 80 371 c 0
 126 536 267 692 415 692 c 0
 467 692 507 674 540 650 c 0
 568 629 587 628 626 678 c 2
 637 692 l 1
 675 692 l 0
 601 436 l 0
 558 436 l 1
EndSplineSet
Validated: 33
Layer: 2
SplineSet
516 523 m 0
 516 595 494 658 421 658 c 4
 318 658 245 494 219 402 c 6
 192 306 l 6
 180 265 170 210 170 160 c 4
 170 88 192 26 267 26 c 4
 368 26 437 182 464 273 c 2
 492 369 l 2
 504 410 516 469 516 523 c 0
444 690 m 4
 563 673 626 573 626 442 c 0
 626 399 620 353 606 306 c 0
 559 141 420 -12 272 -12 c 4
 263 -12 253 -11 243 -10 c 4
 123 7 60 106 60 237 c 4
 60 279 67 324 80 371 c 4
 127 536 267 692 415 692 c 4
 425 692 434 691 444 690 c 4
EndSplineSet
EndChar

StartChar: H
Encoding: 72 72 82
Width: 761
VWidth: 0
Flags: W
HStem: 0 35<0 81.8871 198.05 270 366 447.887 564.05 636> 326 35<279.012 534.465> 645 35<175 247.589 363.113 445 541 613.589 729.113 811>
LayerCount: 5
Fore
SplineSet
712 595 m 2
 566 85 l 2
 556 50 566 35 601 35 c 2
 646 35 l 1
 636 0 l 1
 356 0 l 1
 366 35 l 1
 401 35 l 2
 436 35 455 50 465 85 c 2
 534.46484375 326 l 1
 268.9921875 326 l 1
 200 85 l 2
 190 50 200 35 235 35 c 2
 280 35 l 1
 270 0 l 1
 -10 0 l 1
 0 35 l 1
 35 35 l 2
 70 35 89 50 99 85 c 2
 246 595 l 2
 256 630 245 645 210 645 c 2
 165 645 l 1
 175 680 l 1
 455 680 l 1
 445 645 l 1
 410 645 l 2
 375 645 356 630 346 595 c 2
 279.01171875 361 l 1
 544.552734375 361 l 1
 612 595 l 2
 622 630 611 645 576 645 c 2
 531 645 l 1
 541 680 l 1
 821 680 l 1
 811 645 l 1
 776 645 l 2
 741 645 722 630 712 595 c 2
EndSplineSet
Validated: 33
Layer: 2
SplineSet
540 326 m 5
 264 326 l 5
 274 361 l 5
 550 361 l 5
 540 326 l 5
712 595 m 6
 566 85 l 6
 556 50 566 35 601 35 c 6
 646 35 l 5
 636 0 l 5
 356 0 l 5
 366 35 l 5
 401 35 l 6
 436 35 455 50 465 85 c 6
 612 595 l 6
 622 630 611 645 576 645 c 6
 531 645 l 5
 541 680 l 5
 821 680 l 5
 811 645 l 5
 776 645 l 6
 741 645 722 630 712 595 c 6
346 595 m 6
 200 85 l 6
 190 50 200 35 235 35 c 6
 280 35 l 5
 270 0 l 5
 -10 0 l 5
 0 35 l 5
 35 35 l 6
 70 35 89 50 99 85 c 6
 246 595 l 6
 256 630 245 645 210 645 c 6
 165 645 l 5
 175 680 l 5
 455 680 l 5
 445 645 l 5
 410 645 l 6
 375 645 356 630 346 595 c 6
EndSplineSet
EndChar

StartChar: I
Encoding: 73 73 83
Width: 400
VWidth: 0
Flags: W
HStem: 0 35<0 81.8871 203.05 275> 645 35<175 247.589 368.113 450>
LayerCount: 5
Fore
SplineSet
351 595 m 6
 205 85 l 6
 195 50 205 35 240 35 c 6
 285 35 l 5
 275 0 l 5
 -10 0 l 5
 0 35 l 5
 35 35 l 6
 70 35 89 50 99 85 c 6
 246 595 l 6
 256 630 245 645 210 645 c 6
 165 645 l 5
 175 680 l 5
 460 680 l 5
 450 645 l 5
 415 645 l 6
 380 645 361 630 351 595 c 6
EndSplineSet
Validated: 33
EndChar

StartChar: J
Encoding: 74 74 84
Width: 502
VWidth: 0
Flags: W
HStem: -68 33<57.0909 145.859> 645 35<296 369.123 489.474 572>
VStem: -10 130<42.4126 122.803> -10 60<-18.473 59>
LayerCount: 5
Fore
SplineSet
50 -3 m 0xd0
 50 -24 76 -35 101 -35 c 0
 177 -35 222 91 248 182 c 2
 367 595 l 2
 369 603 371 610 371 616 c 0
 371 636 358 645 331 645 c 2
 286 645 l 1
 296 680 l 1
 582 680 l 1
 572 645 l 1
 537 645 l 2
 502 645 482 630 472 595 c 2
 382 282 l 2
 335 118 268 -68 118 -68 c 0
 37 -68 -10 -13 -10 55 c 0
 -10 63 -9 71 -8 79 c 0
 -3 122 34 146 62 146 c 0
 98 146 120 115 120 88 c 0xe0
 120 51 94 35 74 27 c 0
 58 20 50 9 50 -3 c 0xd0
EndSplineSet
Validated: 1
Layer: 2
SplineSet
45 -8 m 4
 45 -26 59 -47 109 -47 c 7
 153 -47 191 -18 210 50 c 6
 367 595 l 6
 377 630 366 645 331 645 c 6
 286 645 l 5
 296 680 l 5
 582 680 l 5
 572 645 l 5
 537 645 l 6
 502 645 482 630 472 595 c 6
 331 104 l 6
 303 6 208 -78 102 -78 c 7
 43.44921875 -78 -10.51953125 -29.8876953125 -10.51953125 26.9619140625 c 4
 -10.51953125 81.6494140625 21 134 73.908203125 122.333007812 c 4
 101.250976562 116.303710938 121.204101562 83.3515625 111.36328125 50.806640625 c 4
 96 0 45 20 45 -8 c 4
EndSplineSet
Layer: 3
SplineSet
40.5654296875 -58.771484375 m 4
 -25.59375 -27.9208984375 -48.7509765625 33.6328125 -27.619140625 78.947265625 c 4
 -6.9111328125 123.357421875 29.0927734375 131.9453125 59 118 c 4
 88.001953125 104.4765625 101.000976562 70.830078125 87.0546875 40.921875 c 4
 70.572265625 5.576171875 35.169921875 7.740234375 29.67578125 -4.041015625 c 4
 25.8720703125 -12.1982421875 31.009765625 -20.1103515625 48.2294921875 -28.1396484375 c 1028
EndSplineSet
EndChar

StartChar: K
Encoding: 75 75 85
Width: 742
VWidth: 0
Flags: W
HStem: 0 35<0 81.8871 198.05 270 399 458.948 586.367 657> 645 35<175 247.589 363.113 445 547 612.797 723.529 801>
LayerCount: 5
Fore
SplineSet
245 242 m 1
 200 85 l 2
 190 50 200 35 235 35 c 2
 280 35 l 1
 270 0 l 1
 -10 0 l 1
 0 35 l 1
 35 35 l 2
 70 35 89 50 99 85 c 2
 246 595 l 2
 256 630 245 645 210 645 c 2
 165 645 l 1
 175 680 l 1
 455 680 l 1
 445 645 l 1
 410 645 l 2
 375 645 356 630 346 595 c 2
 264 309 l 1
 566 558 l 2
 622 604 640 643 564 643 c 2
 536 643 l 1
 547 680 l 1
 812 680 l 1
 801 643 l 1
 786 643 l 2
 760 643 720 633 677 598 c 2
 435 398 l 1
 557 104 l 2
 575 60 583 37 642 37 c 2
 667 37 l 1
 657 0 l 1
 389 0 l 1
 399 37 l 1
 422 37 l 2
 455 37 472 56 459 88 c 2
 357 334 l 1
 245 242 l 1
EndSplineSet
Validated: 33
Layer: 2
SplineSet
38.93359375 71.8603515625 m 5
 13.490234375 102.725585938 l 5
 726.47265625 690.463867188 l 5
 751.916015625 659.598632812 l 5
 38.93359375 71.8603515625 l 5
373.822265625 546.083007812 m 6
 577.043945312 56.0654296875 l 1030
498 -6.8095703125 m 6
 295.5625 483.83203125 l 1030
346 595 m 2
 200 85 l 2
 190 50 200 35 235 35 c 2
 280 35 l 1
 270 0 l 1
 -10 0 l 1
 0 35 l 1
 35 35 l 2
 70 35 89 50 99 85 c 2
 246 595 l 2
 256 630 245 645 210 645 c 2
 165 645 l 1
 175 680 l 1
 455 680 l 1
 445 645 l 1
 410 645 l 2
 375 645 356 630 346 595 c 2
EndSplineSet
EndChar

StartChar: L
Encoding: 76 76 86
Width: 607
VWidth: 0
Flags: W
HStem: 0 35<0 76.8871 199.819 362.301> 645 35<165 242.589 358.474 446>
LayerCount: 5
Fore
SplineSet
-10 0 m 1
 0 35 l 1
 30 35 l 2
 65 35 84 50 94 85 c 6
 241 595 l 6
 251 630 240 645 205 645 c 2
 155 645 l 1
 165 680 l 1
 456 680 l 1
 446 645 l 1
 406 645 l 2
 371 645 351 630 341 595 c 6
 195 84 l 6
 186 53 212 36 240 36 c 2
 268 36 l 2
 434 36 489 158 557 280 c 1
 587 280 l 1
 489 0 l 1
 -10 0 l 1
EndSplineSet
Validated: 33
EndChar

StartChar: M
Encoding: 77 77 87
Width: 842
VWidth: 0
Flags: HMW
LayerCount: 5
Fore
SplineSet
152 85 m 2xe0
 142 50 153 35 188 35 c 2
 243 35 l 1
 233 0 l 1
 -10 0 l 1
 0 35 l 1
 45 35 l 2
 80 35 99 50 109 85 c 2
 246 558 l 2
 266 629 243 645 187 645 c 2
 169 645 l 1
 179 680 l 1
 414 680 l 1xe0
 422 238 l 1
 516 385 703 680 703 680 c 1
 902 680 l 1
 892 645 l 1
 857 645 l 2
 822 645 802 630 792 595 c 2
 646 85 l 2
 636 50 647 35 682 35 c 2
 727 35 l 1
 717 0 l 1
 437 0 l 1
 447 35 l 1
 482 35 l 2
 517 35 536 50 546 85 c 2
 664 494 l 2
 673 526 657 533 630 491 c 2
 551 367 l 2
 460 225 353 36 341 15 c 1
 318 15 l 1
 320 45 328 246 324 389 c 2xd0
 320 532 l 2
 319 590 300 599 279 527 c 2
 152 85 l 2xe0
EndSplineSet
Validated: 33
Layer: 2
SplineSet
244.131835938 -114.873046875 m 5
 210.397460938 -93.380859375 l 5
 706.862304688 685.91796875 l 5
 740.596679688 664.42578125 l 5
 244.131835938 -114.873046875 l 5
109.618164062 -61.7646484375 m 1
 71.16796875 -50.73828125 l 1
 325.856445312 837.471679688 l 1
 364.306640625 826.4453125 l 1
 109.618164062 -61.7646484375 l 1
325.903320312 176.06640625 m 6
 317.37109375 706.76171875 l 6
 413 736 l 6
 422.490234375 205.59765625 l 1030
EndSplineSet
EndChar

StartChar: N
Encoding: 78 78 88
Width: 778
VWidth: 0
Flags: W
HStem: 0 35<0 91.8871 149.411 232> 645 35<167 229.25 596 678.589 736.113 828>
LayerCount: 5
Fore
SplineSet
719 595 m 2
 544 -12 l 1
 517 -12 l 1
 325 488 l 2
 301 550 285 554 266 487 c 2
 151 85 l 2
 141 50 152 35 187 35 c 2
 242 35 l 1
 232 0 l 1
 -10 0 l 1
 0 35 l 1
 45 35 l 2
 80 35 99 50 109 85 c 2
 242 548 l 2
 265 629 207 648 176 648 c 2
 158 648 l 1
 167 680 l 1
 364 680 l 1
 558 179 l 1
 677 595 l 2
 687 630 676 645 641 645 c 2
 586 645 l 1
 596 680 l 1
 838 680 l 1
 828 645 l 1
 783 645 l 2
 748 645 729 630 719 595 c 2
EndSplineSet
Validated: 33
Layer: 2
SplineSet
530.311523438 -61.7646484375 m 1
 491.861328125 -50.73828125 l 1
 746.549804688 837.471679688 l 1
 785 826.4453125 l 1
 530.311523438 -61.7646484375 l 1
108.618164062 -61.7646484375 m 5
 70.16796875 -50.73828125 l 5
 324.856445312 837.471679688 l 5
 363.306640625 826.4453125 l 5
 108.618164062 -61.7646484375 l 5
477.337890625 90.21484375 m 2
 287.811523438 585.987304688 l 2
 367.672851562 646.168945312 l 2
 558 151 l 1026
EndSplineSet
EndChar

StartChar: O
Encoding: 79 79 89
Width: 646
VWidth: 0
Flags: W
HStem: -12 38<209.977 325.709> 658 34<366.587 473.122>
VStem: 60 110<115.005 306.914> 516 110<375.191 563.094>
LayerCount: 5
Fore
SplineSet
516 523 m 0
 516 595 494 658 421 658 c 0
 318 658 245 494 219 402 c 2
 192 306 l 2
 180 265 170 210 170 160 c 0
 170 88 192 26 267 26 c 0
 368 26 437 182 464 273 c 2
 492 369 l 2
 504 410 516 469 516 523 c 0
444 690 m 0
 563 673 626 573 626 442 c 0
 626 399 620 353 606 306 c 0
 559 141 420 -12 272 -12 c 0
 263 -12 253 -11 243 -10 c 0
 123 7 60 106 60 237 c 0
 60 279 67 324 80 371 c 0
 127 536 267 692 415 692 c 0
 425 692 434 691 444 690 c 0
EndSplineSet
Validated: 1
Layer: 2
SplineSet
435 663 m 4
 325.75390625 678.353515625 246.068359375 498.2421875 219 402 c 6
 192 306 l 6
 164.508789062 210.198242188 142.75390625 36.353515625 252 21 c 4
 361.24609375 5.646484375 436.19140625 178.122070312 464 273 c 6
 492 369 l 6
 519.685546875 463.922851562 544.24609375 647.646484375 435 663 c 4
444 690 m 4
 602.413085938 667.736328125 661.088867188 498.118164062 606 306 c 4
 555.53125 129.993164062 401.413085938 -32.263671875 243 -10 c 4
 84.5869140625 12.263671875 24.9111328125 178.881835938 80 371 c 4
 130.46875 547.006835938 285.586914062 712.263671875 444 690 c 4
342 338 m 1029
-61.376953125 387.166992188 m 5
 342.577148438 338.234375 l 5
 906.340820312 268.8671875 l 1029
-59.8984375 336.174804688 m 21
 908.819335938 217.911132812 l 1037
-64.8193359375 437.088867188 m 21
 903.8984375 318.825195312 l 1037
198.96875 -164.57421875 m 29
 446.03125 697.57421875 l 1053
515.143554688 -7.4013671875 m 29
 698.856445312 634.401367188 l 1053
384.142578125 -7.3837890625 m 29
 566.857421875 634.383789062 l 1053
102.143554688 -7.4013671875 m 29
 285.856445312 634.401367188 l 1053
-27.8564453125 -7.4013671875 m 29
 155.856445312 634.401367188 l 1053
EndSplineSet
Layer: 3
SplineSet
184 340 m 4
 112 90 153 20 243 20 c 4
 333 20 413 90 485 340 c 4
 557 590 517 660 427 660 c 4
 337 660 256 590 184 340 c 4
58 340 m 4
 114 535 260 692 436 692 c 4
 612 692 666 535 610 340 c 4
 554 146 410 -12 234 -12 c 4
 58 -12 2 146 58 340 c 4
EndSplineSet
EndChar

StartChar: P
Encoding: 80 80 90
Width: 630
VWidth: 0
Flags: W
HStem: 0 35<0 76.8871 191.877 290> 328 36<274 431.606> 645 35<165 243.123 362.629 493.766>
VStem: 526 114<462.786 611.247>
LayerCount: 5
Fore
SplineSet
194 85 m 2
 192 77 190 70 190 64 c 0
 190 44 203 35 230 35 c 2
 300 35 l 1
 290 0 l 1
 -10 0 l 1
 0 35 l 1
 30 35 l 2
 65 35 84 50 94 85 c 2
 241 595 l 2
 243 603 245 610 245 616 c 0
 245 636 232 645 205 645 c 2
 155 645 l 1
 165 680 l 1
 450 680 l 2
 574 680 640 623 640 534 c 0
 640 524 640 514 638 504 c 0
 621 391 505 328 348 328 c 2
 264 328 l 1
 194 85 l 2
274 364 m 1
 350 364 l 2
 420 364 491 392 518 504 c 0
 523 526 526 545 526 561 c 0
 526 625 486 644 430 644 c 2
 423 644 l 2
 402 644 352 636 343 604 c 2
 274 364 l 1
EndSplineSet
Validated: 1
EndChar

StartChar: Q
Encoding: 81 81 91
Width: 646
VWidth: 0
Flags: W
HStem: -172 46<386.845 462.422> -12 39<230.176 296.626> 201 28<246.163 319.151> 658 34<366.126 475.61>
VStem: 60 566<237 442> 181 29<99.345 158.072> 505 31<-67.4922 -40.919>
LayerCount: 5
Fore
SplineSet
444 690 m 0xf8
 563 673 626 573 626 442 c 0xf8
 626 399 619 353 606 306 c 0
 569 178 482 68 391 20 c 1
 372 -64 374 -126 418 -126 c 0
 452 -126 488 -85 505 -34 c 1
 536 -43 l 1xf2
 515 -109 468 -172 396 -172 c 0
 307 -172 277 -97 297 -11 c 1
 289 -12 280 -12 272 -12 c 0
 263 -12 253 -11 243 -10 c 0
 123 7 60 106 60 237 c 0
 60 279 67 324 80 371 c 0
 127 536 267 692 415 692 c 0
 425 692 434 691 444 690 c 0xf8
181 98 m 1xf4
 182 165 230 229 293 229 c 3
 351 229 399 185 395 104 c 1
 405 104 l 1
 431 151 457 212 474 270 c 2
 502 366 l 2
 528 457 551 658 421 658 c 0
 318 658 235 497 209 405 c 2
 182 309 l 2
 168 258 156 163 174 98 c 1
 181 98 l 1xf4
273 27 m 0
 288 27 296 29 310 35 c 0
 312 40 313 45 315 50 c 0
 331 93 361 201 281 201 c 0
 242 201 210 152 210 108 c 0
 210 61 230 27 273 27 c 0
EndSplineSet
Validated: 33
Layer: 2
SplineSet
186 57 m 5
 156.282226562 124.85546875 206 229 293 229 c 4
 381.677734375 229 421.744140625 136.345703125 397 44 c 4
 370.815429688 -53.72265625 377.973632812 -117 414 -117 c 7
 443 -117 473.331054688 -84.765625 490 -34 c 5
 521 -43 l 5
 500.223632812 -109.323242188 448 -172 384 -172 c 7
 318 -172 288.4765625 -130.935546875 288.4765625 -76.3916015625 c 4
 288.4765625 -37.755859375 299.583007812 7.642578125 315 50 c 4
 330.736328125 93.2353515625 361 201 281 201 c 4
 241.981445312 201 210.424804688 152 210.424804688 108 c 4
 210.424804688 59 224.654296875 24.2900390625 266 17 c 5
 206.5 20.5 l 5
 186 57 l 5
421 658 m 4
 318 658 238.883789062 496.032226562 213 404 c 6
 186 308 l 6
 159.59375 214.110351562 137.954101562 26 267 26 c 4
 368 26 443.422851562 179.876953125 470 271 c 6
 498 367 l 6
 524.45703125 457.708984375 550.795898438 658 421 658 c 4
444 690 m 4
 563 673 626 573 626 442 c 4
 626 399 619.434570312 353.165039062 606 306 c 4
 559 141 420 -12 272 -12 c 4
 263 -12 252.950195312 -11.4091796875 243 -10 c 4
 123 7 60 106 60 237 c 4
 60 279 66.640625 324.100585938 80 371 c 4
 127 536 267 692 415 692 c 4
 425 692 434.05078125 691.420898438 444 690 c 4
EndSplineSet
EndChar

StartChar: R
Encoding: 82 82 92
Width: 708
VWidth: 0
Flags: W
HStem: -12 63<473.5 570.749> 0 35<0 76.8871 192.411 280> 348 36<280 403.457> 645 35<165 242.589 362.629 505.072>
VStem: 412 104<52.3345 219.496> 435 96<98.2626 299.202>
LayerCount: 5
Fore
SplineSet
194 85 m 2xb4
 184 50 195 35 230 35 c 2
 290 35 l 1
 280 0 l 1
 -10 0 l 1
 0 35 l 1
 30 35 l 2
 65 35 84 50 94 85 c 2
 241 595 l 2
 251 630 240 645 205 645 c 2
 155 645 l 1
 165 680 l 1
 450 680 l 2
 591 680 658 616 643 514 c 0
 633 445 548 377 450 364 c 1
 450 353 l 1
 498 334 531 277 531 210 c 0x74
 531 174 516 137 516 100 c 0
 516 73 523 51 545 51 c 0
 579 51 606 94 628 172 c 1
 658 166 l 1
 637 69 586 -12 501 -12 c 0
 446 -12 412 27 412 82 c 0xb8
 412 125 435 196 435 245 c 0
 435 303 411 348 349 348 c 2
 270 348 l 1
 194 85 l 2xb4
356 384 m 2
 448 384 502 419 529 514 c 0
 556 609 512 644 446 644 c 2
 423 644 l 2
 402 644 352 636 343 604 c 2
 280 384 l 1
 356 384 l 2
EndSplineSet
Validated: 33
EndChar

StartChar: S
Encoding: 83 83 93
Width: 641
VWidth: 0
Flags: W
HStem: -12 39<218.949 404.577> 0 21G<10 59> 656 36<317.896 478.236> 660 20G<621 671>
VStem: 91 43<261.602 287> 156 100<495.99 589.07> 480 93<118.29 224.174> 561 43<446 471.035>
LayerCount: 5
Fore
SplineSet
48 0 m 1x4e
 10 0 l 0x4e
 91 287 l 0
 134 287 l 1
 109 148 168 27 300 27 c 0
 426 27 480 86 480 162 c 0
 480 222 427 267 361 299 c 2
 283 337 l 2
 197 379 156 446 156 511 c 0
 156 604 243 692 398 692 c 0xae
 498 692 549 624 572 624 c 0
 585 624 600 636 621 664 c 2
 633 680 l 1
 671 680 l 0
 604 446 l 0
 561 446 l 1x1d
 573 592 490 656 407 656 c 0
 326 656 256 621 256 548 c 0
 256 503 312 457 359 434 c 2
 420 403 l 2
 518 355 573 296 573 211 c 0
 573 86 463 -12 311 -12 c 0xae
 252 -12 186 11 145 48 c 0
 133 58 124 63 115 63 c 0
 98 63 82 46 59 15 c 2
 48 0 l 1x4e
EndSplineSet
Validated: 33
EndChar

StartChar: T
Encoding: 84 84 94
Width: 603
VWidth: 0
Flags: W
HStem: 0 35<87 173.887 294.411 372> 644 36<245.782 340.748 457.011 551.58>
VStem: 70 29<429 453.845> 589 29<430 457.569>
LayerCount: 5
Fore
SplineSet
296 85 m 2
 286 50 297 35 332 35 c 2
 382 35 l 1
 372 0 l 1
 76 0 l 1
 87 35 l 1
 127 35 l 2
 162 35 181 50 191 85 c 2
 339 604 l 2
 348 636 333 644 297 644 c 3
 223 644 153 535 99 429 c 1
 70 429 l 1
 141 680 l 1
 683 680 l 1
 618 430 l 1
 589 430 l 1
 596 535 581 644 511 644 c 3
 479 644 454 636 445 604 c 2
 296 85 l 2
EndSplineSet
Validated: 33
EndChar

StartChar: U
Encoding: 85 85 95
Width: 717
VWidth: 0
Flags: W
HStem: -12 43<249.476 397.454> 645 35<155 232.589 356.113 433 545 632.589 690.113 777>
LayerCount: 5
Fore
SplineSet
673 595 m 2
 575 257 l 2
 535 118 459 -12 297 -12 c 3
 199 -12 120 39 120 160 c 0
 120 206 138 273 151 318 c 2
 231 595 l 2
 241 630 230 645 195 645 c 2
 145 645 l 1
 155 680 l 1
 443 680 l 1
 433 645 l 1
 403 645 l 2
 368 645 349 630 339 595 c 2
 251 288 l 2
 204 125 206 31 317 31 c 3
 437 31 505 154 539 274 c 2
 631 595 l 2
 641 630 630 645 595 645 c 2
 535 645 l 1
 545 680 l 1
 787 680 l 1
 777 645 l 1
 737 645 l 2
 702 645 683 630 673 595 c 2
EndSplineSet
Validated: 33
Layer: 2
SplineSet
484.311523438 -61.7646484375 m 5
 445.861328125 -50.73828125 l 5
 700.549804688 837.471679688 l 5
 739 826.4453125 l 5
 484.311523438 -61.7646484375 l 5
EndSplineSet
EndChar

StartChar: V
Encoding: 86 86 96
Width: 593
VWidth: 0
Flags: W
HStem: 645 35<50 121.474 251.52 335 498 573.062 652.076 743>
LayerCount: 5
Fore
SplineSet
296 127 m 1
 553 563 l 2
 594 633 575 645 515 645 c 2
 488 645 l 1
 498 680 l 1
 753 680 l 1
 743 645 l 1
 718 645 l 2
 683 645 646 644 600 564 c 2
 261 -12 l 1
 212 -12 l 1
 140 574 l 2
 132 638 107 645 74 645 c 2
 40 645 l 1
 50 680 l 1
 345 680 l 1
 335 645 l 1
 307 645 l 2
 258 645 235 630 242 571 c 2
 296 127 l 1
EndSplineSet
Validated: 33
EndChar

StartChar: W
Encoding: 87 87 97
Width: 832
VWidth: 0
Flags: HMW
LayerCount: 5
Fore
SplineSet
40 645 m 1xd0
 50 680 l 1
 328 680 l 1
 318 645 l 1
 281 645 l 2
 237 645 237 621 240 588 c 2xd0
 277 164 l 1
 474 499 l 1
 466 616 l 2
 465 637 440 645 422 645 c 2
 397 645 l 1
 407 680 l 1
 650 680 l 1
 640 645 l 1
 607 645 l 2
 560 645 563 614 565 588 c 2
 594 176 l 1
 809 572 l 2
 834 617 823 645 760 645 c 2
 719 645 l 1
 729 680 l 1
 992 680 l 1
 982 645 l 1
 952 645 l 2
 923 645 891 638 854 570 c 2
 538 -13 l 1
 533 -12 l 1
 510 -12 l 1
 479 428 l 1
 219 -12 l 1
 194 -12 l 1xb0
 144 576 l 2
 138 641 105 645 70 645 c 2
 40 645 l 1xd0
EndSplineSet
Validated: 33
Layer: 2
SplineSet
481.545898438 -115.629882812 m 1
 446.393554688 -96.5439453125 l 1
 887.287109375 715.487304688 l 1
 922.440429688 696.40234375 l 1
 481.545898438 -115.629882812 l 1
497.955078125 153.272460938 m 2
 461.66015625 682.793945312 l 2
 555.627929688 716.997070312 l 2
 592.864257812 187.818359375 l 1026
149.84375 -130.319335938 m 5
 115.379882812 -110.017578125 l 5
 584.344726562 686.1328125 l 5
 618.80859375 665.831054688 l 5
 149.84375 -130.319335938 l 5
180.53125 151.192382812 m 6
 135 680 l 6
 228.357421875 715.837890625 l 6
 274.823242188 187.388671875 l 1030
EndSplineSet
EndChar

StartChar: X
Encoding: 88 88 98
Width: 687
VWidth: 0
Flags: W
HStem: 0 35<-30 47.3093 139.95 218 360 420.05 558.523 634> 645 35<127 204.242 332.949 394 504 572.029 662.543 747>
LayerCount: 5
Fore
SplineSet
228 35 m 1
 218 0 l 1
 -40 0 l 1
 -30 35 l 1
 -14 35 l 2
 27 35 49 47 92 93 c 2
 324 342 l 1
 222 595 l 2
 208 631 193 645 162 645 c 2
 117 645 l 1
 127 680 l 1
 404 680 l 1
 394 645 l 1
 377 645 l 2
 327 645 322 617 335 586 c 2
 404 417 l 1
 547 571 l 2
 585 612 582 645 537 645 c 2
 494 645 l 1
 504 680 l 1
 757 680 l 1
 747 645 l 1
 721 645 l 2
 688 645 665 638 618 588 c 2
 420 376 l 1
 538 86 l 2
 550 55 569 35 604 35 c 2
 644 35 l 1
 634 0 l 1
 350 0 l 1
 360 35 l 1
 380 35 l 2
 410 35 442 53 418 108 c 2
 340 301 l 1
 163 111 l 2
 128 73 124 35 185 35 c 2
 228 35 l 1
EndSplineSet
Validated: 33
Layer: 2
SplineSet
69.4111328125 10.5849609375 m 1
 40.158203125 37.865234375 l 1
 357.336914062 378 l 1
 381.32421875 393 l 1
 680.32421875 713.640625 l 1
 709.577148438 686.360351562 l 1
 401.513671875 356 l 1
 374.728515625 338 l 1
 69.4111328125 10.5849609375 l 1
425.349609375 90.04296875 m 6
 227.200195312 582.43359375 l 6
 312 644 l 6
 510.939453125 152.2265625 l 1030
EndSplineSet
Layer: 3
SplineSet
69.4111328125 10.5849609375 m 5
 40.158203125 37.865234375 l 5
 670.32421875 713.640625 l 5
 699.577148438 686.360351562 l 5
 69.4111328125 10.5849609375 l 5
EndSplineSet
EndChar

StartChar: Y
Encoding: 89 89 99
Width: 537
VWidth: 0
Flags: W
HStem: 0 35<78 159.887 276.411 349> 645 35<50 125.914 241.91 313 462 522.599 594.213 687>
LayerCount: 5
Fore
SplineSet
177 85 m 2
 240 303 l 1
 138 600 l 2
 127 636 117 645 81 645 c 2
 40 645 l 1
 50 680 l 1
 323 680 l 1
 313 645 l 1
 277 645 l 2
 239 645 235 617 240 600 c 2
 326 350 l 1
 506 590 l 2
 536 631 522 645 495 645 c 2
 452 645 l 1
 462 680 l 1
 697 680 l 1
 687 645 l 1
 647 645 l 2
 616 645 583 627 556 590 c 2
 341 304 l 1
 278 85 l 2
 268 50 279 35 314 35 c 2
 359 35 l 1
 349 0 l 1
 68 0 l 1
 78 35 l 1
 113 35 l 2
 148 35 167 50 177 85 c 2
EndSplineSet
Validated: 33
Layer: 2
SplineSet
354 350 m 1
 278 85 l 1026
177 85 m 2
 247 328 l 1025
97.8017578125 -18.8955078125 m 5
 65.857421875 5.1767578125 l 5
 621.93359375 743.12109375 l 5
 653.877929688 719.048828125 l 5
 97.8017578125 -18.8955078125 l 5
283.59375 173.888671875 m 2
 111.486328125 675.974609375 l 2
 193.393554688 732.9140625 l 2
 193.393554688 732.9140625 313.87109375 385.7890625 366.322265625 231.40234375 c 1026
EndSplineSet
EndChar

StartChar: Z
Encoding: 90 90 100
Width: 593
VWidth: 0
Flags: W
HStem: 0 36<138.351 340.682> 644 36<288.145 466.672>
LayerCount: 5
Fore
SplineSet
480 0 m 1
 -20 0 l 1
 -20 20 l 1
 459 610 l 2
 482 638 460 644 442 644 c 2
 374 644 l 2
 254 644 209 573 131 432 c 1
 101 432 l 1
 165 680 l 1
 623 680 l 1
 623 660 l 1
 146 70 l 2
 127 46 138 36 160 36 c 2
 256 36 l 2
 393 36 453 142 517 263 c 1
 547 263 l 1
 480 0 l 1
EndSplineSet
Validated: 33
Layer: 2
SplineSet
71.4482421875 132.14453125 m 6
 406.034179688 544.1640625 l 1030
498.084960938 505.090820312 m 6
 164.02734375 91.7587890625 l 1030
EndSplineSet
EndChar

StartChar: bracketleft
Encoding: 91 91 101
Width: 292
VWidth: 0
Flags: HMW
LayerCount: 5
Fore
SplineSet
382 740 m 1
 372 698 l 1
 237.626 698 l 1
 31.3743 -137 l 1
 185 -137 l 1
 175 -179 l 1
 -53 -179 l 1
 174 740 l 1
 382 740 l 1
EndSplineSet
Validated: 1
Layer: 2
SplineSet
185 -137 m 5
 175 -179 l 5
 -53 -179 l 5
 -39 -137 l 5
 185 -137 l 5
382 740 m 5
 372 698 l 5
 164 698 l 5
 174 740 l 5
 382 740 l 5
174 740 m 5
 248 740 l 5
 21 -179 l 5
 -53 -179 l 5
 174 740 l 5
EndSplineSet
EndChar

StartChar: backslash
Encoding: 92 92 102
Width: 316
VWidth: 0
Flags: HMW
LayerCount: 5
Fore
SplineSet
75 754 m 1
 122 754 l 1
 216 -123 l 1
 169 -123 l 1
 75 754 l 1
EndSplineSet
Validated: 1
EndChar

StartChar: bracketright
Encoding: 93 93 103
Width: 292
VWidth: 0
Flags: HMW
LayerCount: 5
Fore
SplineSet
54.374 -137 m 1
 260.626 698 l 1
 107 698 l 1
 117 740 l 1
 345 740 l 1
 118 -179 l 1
 -90 -179 l 1
 -80 -137 l 1
 54.374 -137 l 1
EndSplineSet
Validated: 1
Layer: 2
SplineSet
248 740 m 5
 238 698 l 5
 10 698 l 5
 20 740 l 5
 248 740 l 5
31 -137 m 5
 21 -179 l 5
 -187 -179 l 5
 -177 -137 l 5
 31 -137 l 5
174 740 m 5
 248 740 l 5
 21 -179 l 5
 -53 -179 l 5
 174 740 l 5
EndSplineSet
EndChar

StartChar: asciicircum
Encoding: 94 94 104
Width: 268
VWidth: 0
Flags: HMW
LayerCount: 5
Fore
SplineSet
123 702 m 1
 184 702 l 1
 201 658 241 577 268 537 c 1
 246 529 l 1
 217 558 179 597 147 635 c 1
 100 598 41 556 8 536 c 1
 0 558 l 1
 34 588 96 662 123 702 c 1
EndSplineSet
Validated: 1
Layer: 2
SplineSet
176 702 m 5
 193 658 233 577 260 537 c 13
 238 529 l 21
 199 568 142 628 106 674 c 13
 115 702 l 13
 176 702 l 5
115 702 m 5
 176 702 l 21
 186 674 l 21
 146 637 46 564 0 536 c 13
 -8 558 l 21
 26 588 88 662 115 702 c 5
EndSplineSet
EndChar

StartChar: underscore
Encoding: 95 95 105
Width: 1222
VWidth: 0
Flags: HMW
LayerCount: 5
Fore
SplineSet
826 96 m 1
 1122 96 l 1
 1096 16 l 1
 800 16 l 1
 826 96 l 1
EndSplineSet
Validated: 1
EndChar

StartChar: asciitilde
Encoding: 126 126 106
Width: 321
VWidth: 0
Flags: HMW
LayerCount: 5
Fore
SplineSet
78 608 m 3
 52 608 34 585 22 560 c 9
 0 568 l 17
 16 610 51 666 101 666 c 3
 151 666 206 604 243 604 c 3
 269 604 287 627 299 652 c 9
 321 644 l 17
 305 602 270 546 220 546 c 3
 170 546 115 608 78 608 c 3
EndSplineSet
Validated: 1
EndChar

StartChar: uni0080
Encoding: 128 128 107
Width: 344
VWidth: 0
Flags: HMW
LayerCount: 5
Fore
SplineSet
447 414 m 0
 416 414 375 344 340 240 c 1
 310 240 l 1
 349 366 404 458 476 458 c 0
 530 458 550 416 553 365 c 1
 596 424 644 463 684 463 c 0
 722 463 754 434 754 396 c 0
 754 359 732 327 698 327 c 0
 673 327 652 343 649 373 c 0
 646 401 633 407 616 393 c 0
 574 359 551 301 529 233 c 2
 453 0 l 1
 363 0 l 1
 448 261 l 2
 462 305 487 414 447 414 c 0
63 418 m 1
 73 450 l 1
 155 450 l 1
 199 584 l 1
 301 621 l 1
 245 450 l 1
 344 450 l 1
 334 418 l 1
 235 418 l 1
 145 142 l 2
 133.235 105.922 125 79 125 61 c 0
 125 44 132 36 151 36 c 0
 176 36 234 67 269 171 c 1
 299 171 l 1
 261 50 192 -8 132 -8 c 0
 75 -8 45 30 45 84 c 0
 45 102 48.4307 121.854 55 142 c 2
 145 418 l 1
 63 418 l 1
EndSplineSet
Validated: 33
EndChar

StartChar: cent
Encoding: 162 162 108
Width: 713
VWidth: 0
Flags: HMW
LayerCount: 5
Fore
SplineSet
76 418 m 1
 86 450 l 1
 205 450 l 1
 254 580 330 713 467 713 c 0
 522 713 562 688 580 656 c 1
 668 658 l 1
 500 142 l 2
 477 72 467 36 506 36 c 0
 531 36 589 67 624 171 c 1
 654 171 l 1
 616 50 547 -8 487 -8 c 0
 412 -8 383 59 410 142 c 2
 544 553 l 1
 540 552 537 552 533 552 c 0
 503 552 479 575 479 605 c 0
 479 640 510 649 510 666 c 0
 510 677 492 682 473 682 c 0
 375 682 334 548 303 450 c 1
 426 450 l 1
 416 418 l 1
 293 418 l 1
 223 202 l 2
 169 37 88 -248 -88 -248 c 0
 -160 -248 -208 -202 -208 -152 c 0
 -208 -103 -179 -80 -146 -80 c 0
 -114 -80 -88 -105 -88 -138 c 0
 -88 -177 -121 -190 -121 -203 c 0
 -121 -212 -113 -217 -94 -217 c 0
 -2 -217 48 -26 81 74 c 2
 193 418 l 1
 76 418 l 1
EndSplineSet
Validated: 33
Layer: 2
SplineSet
524.967 654.505 m 5
 668 657.5 l 5
 500 142 l 6
 477.167 71.9385 467 36 506 36 c 4
 531 36 589 67 624 171 c 5
 654 171 l 5
 616 50 547 -8 487 -8 c 4
 412 -8 382.976 59.0166 410 142 c 6
 551.5 576.5 l 6
 563.833 614.87 547.294 623.194 517 624.632 c 5
 503.081 625.293 524.967 654.505 524.967 654.505 c 5
76 418 m 5
 86 450 l 5
 205 450 l 5
 254 580 329.5 713 467 713 c 4
 542 713 590 667 590 617 c 4
 590 576 562 552 533 552 c 4
 503 552 479 575 479 605 c 4
 479 640 510 649 510 666 c 4
 510 677 492.333 682 473 682 c 4
 375 682 334 548 303 450 c 5
 426 450 l 5
 416 418 l 5
 293 418 l 5
 223 202 l 6
 169 37 88 -248 -88 -248 c 4
 -160 -248 -208 -202 -208 -152 c 4
 -208 -103 -179 -80 -146 -80 c 4
 -114 -80 -88 -105 -88 -138 c 4
 -88 -177 -121 -190 -121 -203 c 4
 -121 -212 -113 -217 -94 -217 c 4
 -2 -217 49 -26 81 74 c 6
 193 418 l 5
 76 418 l 5
EndSplineSet
Ligature2: "liga-1" f l
EndChar

StartChar: sterling
Encoding: 163 163 109
Width: 621
VWidth: 0
Flags: HMW
LayerCount: 5
Fore
SplineSet
62 415 m 1
 73 450 l 1
 192 450 l 1
 241 580 324 710 466 710 c 0
 576 710 621 641 621 597 c 0
 621 556 597 519 560 519 c 0
 530 519 506 542 506 572 c 0
 506 617 545 625 550 641 c 0
 554 652 531 679 476 679 c 0
 361 679 321 548 290 450 c 1
 573 450 l 1
 474 138 l 2
 452 68 436 32 473 32 c 0
 500 32 536 89 555 146 c 1
 587 141 l 1
 561 58 516 -12 441 -12 c 0
 371 -12 357 55 384 138 c 2
 472 415 l 1
 279 415 l 1
 210 202 l 2
 156 37 76 -245 -100 -245 c 0
 -172 -245 -220 -199 -220 -149 c 0
 -220 -100 -191 -77 -158 -77 c 0
 -126 -77 -100 -102 -100 -135 c 0
 -100 -174 -133 -187 -133 -200 c 0
 -133 -209 -125 -214 -106 -214 c 0
 -14 -214 35 -26 68 74 c 2
 179 415 l 1
 62 415 l 1
EndSplineSet
Validated: 33
LCarets2: 1 0 
Ligature2: "liga-1" f i
EndChar

StartChar: dieresis
Encoding: 168 168 110
Width: 298
VWidth: 0
Flags: HMW
LayerCount: 5
Fore
SplineSet
194 588 m 0
 194 617 217 640 246 640 c 0
 275 640 298 617 298 588 c 0
 298 559 275 536 246 536 c 0
 217 536 194 559 194 588 c 0
0 588 m 0
 0 617 23 640 52 640 c 0
 81 640 104 617 104 588 c 0
 104 559 81 536 52 536 c 0
 23 536 0 559 0 588 c 0
EndSplineSet
Validated: 1
EndChar

StartChar: acute
Encoding: 180 180 111
Width: 220
VWidth: 0
Flags: HMW
LayerCount: 5
Fore
SplineSet
103 694 m 1
 213 706 l 17
 220 686 l 17
 176 652 56 566 8 540 c 9
 0 562 l 17
 32 593 80 654 103 694 c 1
EndSplineSet
Validated: 1
EndChar

StartChar: Thorn
Encoding: 222 222 137
Width: 1024
VWidth: 0
Flags: HM
LayerCount: 5
Layer: 2
SplineSet
344 375 m 5
 350 399 l 5
 439 384 474 433 491 509 c 4
 508 584 493 635 443 635 c 4
 352 635 309 468 277 370 c 6
 223 202 l 6
 171 37 88 -248 -88 -248 c 4
 -161 -248 -208 -202 -208 -152 c 4
 -208 -103 -179 -80 -146 -80 c 4
 -114 -80 -88 -105 -88 -138 c 4
 -88 -177 -121 -190 -121 -203 c 4
 -121 -212 -113 -217 -94 -217 c 4
 -2 -217 49 -26 81 74 c 6
 152 294 l 6
 201 445 275 664 437 664 c 4
 529 664 589 597 576 511 c 4
 564 431 505 394 436 377 c 5
 524 338 564 257 549 164 c 4
 533 70 452 -8 343 -8 c 4
 270 -8 234 44 234 74 c 4
 234 118 260 140 290 140 c 4
 318 140 339 119 339 88 c 4
 339 60 319 52 319 38 c 4
 319 29 329 21 341 21 c 4
 390 21 434 83 454 165 c 4
 481 275 452 361 344 375 c 5
EndSplineSet
EndChar

StartChar: germandbls
Encoding: 223 223 138
Width: 556
VWidth: 0
Flags: HMW
LayerCount: 5
Fore
SplineSet
499 217 m 3
 499 94 413 -8 310 -8 c 0
 226 -8 195 47 195 76 c 0
 195 112 216 132 246 132 c 0
 272 132 295 111 295 80 c 0
 295 52 284 48 284 34 c 0
 284 26 294 21 305 21 c 0
 346 21 377 75 402 178 c 0
 429 289 400 377 310 391 c 1
 316 415 l 1
 321 414 327 414 332 414 c 0
 389 414 431 443 449 525 c 0
 464 593 465 663 407 663 c 0
 322 663 279 496 247 398 c 2
 184 202 l 2
 99 -50 13 -248 -115 -248 c 0
 -179 -248 -220 -202 -220 -156 c 0
 -220 -110 -194 -89 -163 -89 c 0
 -133 -89 -109 -111 -109 -142 c 0
 -109 -175 -136 -183 -136 -203 c 0
 -136 -212 -127 -218 -115 -218 c 0
 -41 -218 11 -20 42 74 c 2
 122 322 l 2
 171 473 247 692 401 692 c 0
 480 692 536 636 536 560 c 0
 536 455 459 410 389 393 c 1
 456.1875 355.348632812 499 299.046875 499 217 c 3
EndSplineSet
Validated: 33
EndChar

StartChar: aring
Encoding: 229 229 144
Width: 555
VWidth: 0
Flags: HMW
LayerCount: 5
Fore
SplineSet
284 638 m 0
 284 601.390625 312.491210938 570 352 570 c 0
 388.609375 570 420 598.491210938 420 638 c 0
 420 674.609375 391.508789062 706 352 706 c 0
 315.390625 706 284 677.508789062 284 638 c 0
244 638 m 0
 244 700.34375 294.240234375 746 352 746 c 0
 414.344726562 746 460 695.759765625 460 638 c 0
 460 575.65625 409.759765625 530 352 530 c 0
 289.655273438 530 244 580.240234375 244 638 c 0
EndSplineSet
Refer: 6 97 N 1 0 0 1 0 0 2
Validated: 1
EndChar

StartChar: ae
Encoding: 230 230 145
Width: 685
VWidth: 0
Flags: HMW
LayerCount: 5
Fore
SplineSet
278 412 m 0
 217 412 172 313 148 240 c 0
 113 131 99 44 162 44 c 0
 208 44 260 90 300 208 c 2
 312 243 l 2
 322 274 327 308 327 338 c 0
 327 380 314 412 278 412 c 0
414 283 m 1
 398 234 l 1
 408 232 417 231 427 231 c 0
 512 231 581 320 581 378 c 0
 581 400 570 410 550 410 c 0
 511 410 439 341 414 283 c 1
302 124 m 1
 260 47 201 -8 146 -8 c 0
 68 -8 35 71 35 152 c 0
 35 318 162 458 271 458 c 0
 319 458 347 431 358 385 c 1
 379 450 l 1
 469 450 l 1
 446 382 l 1
 485 420 534 458 584 458 c 0
 640 458 665 420 665 368 c 0
 665 292 580 197 447 197 c 0
 429 197 409 199 388 202 c 1
 362 125 364 41 434 41 c 0
 478 41 535 66 583 148 c 1
 611 138 l 1
 571 48 493 -8 424 -8 c 0
 348 -8 306 36 302 124 c 1
EndSplineSet
Validated: 33
Layer: 2
SplineSet
784 450 m 4
 845 450 870.925 400.5 870.925 352 c 4
 870.925 282 802 189 669 189 c 4
 650 189 629 191 607 194 c 5
 598 167 593 140 593 115 c 4
 593 69 611 33 653 33 c 4
 697 33 751 58 799 140 c 13
 827 130 l 21
 787 40 712 -16 643 -16 c 4
 521 -16 550.982 155.006 584 256 c 4
 627.435 388.858 705 450 784 450 c 4
619 226 m 5
 629 224 639 223 649 223 c 4
 734 223 787 312 787 370 c 4
 787 398 776 412.334 754.001 412.334 c 4
 699.001 412.334 657 339 636 277 c 6
 619 226 l 5
748 450 m 0
 825 450 868 395 868 343 c 0
 868 270 802 189 669 189 c 0
 650 189 629 191 607 194 c 1
 598 167 593 140 593 115 c 0
 593 69 610.5 33 653 33 c 0
 697.5 33 751 58 799 140 c 9
 827 130 l 17
 787 40 712 -16 643 -16 c 0
 556 -16 512 60 512 152 c 0
 512 310 641.5 450 748 450 c 0
619 226 m 1
 629 224 639 223 649 223 c 0
 734 223 787 312 787 370 c 0
 787 398 775.5 419 748 419 c 0
 693 419 657 339 636 277 c 2
 619 226 l 1
290 412 m 0
 229 412 185 313 160 240 c 0
 143 187 131 136 131 100 c 0
 131 66 138.5 45 162 45 c 0
 226 45 287 128 312 208 c 2
 324 243 l 2
 334 274 339 308 339 338 c 0
 339 380 326 412 290 412 c 0
47 152 m 0
 47 318 174 458 283 458 c 0
 331.5 458 359 431 370 385 c 1
 391 450 l 1
 481 450 l 1
 381 142 l 2
 368 102 358 73 358 56 c 0
 358 43 364 36 380 36 c 0
 407 36 443 93 462 150 c 1
 492 150 l 1
 466 67 416 -8 348 -8 c 0
 300 -8 278 24 278 71 c 0
 278 74 278 77 278 80 c 1
 238 30 185.5 -8 142 -8 c 0
 72 -8 47 71 47 152 c 0
EndSplineSet
EndChar

StartChar: igrave
Encoding: 236 236 150
Width: 339
VWidth: 0
Flags: HMW
LayerCount: 5
Fore
SplineSet
236 308 m 2
 172 142 l 2
 157 102 147 75 147 57 c 0
 147 43 154 36 171 36 c 3
 198 36 234 93 253 150 c 9
 283 150 l 17
 257 67 207 -8 139 -8 c 0
 91 -8 67 24 67 70 c 0
 67 91 72 116 82 142 c 2
 146 308 l 2
 161 348 171 375 171 393 c 0
 171 407 164 414 147 414 c 3
 120 414 84 357 65 300 c 9
 35 300 l 17
 61 383 111 458 179 458 c 3
 227 458 251 426 251 380 c 0
 251 359 246 334 236 308 c 2
EndSplineSet
Refer: 167 96 S 1 0 0 1 77 0 2
Validated: 1
EndChar

StartChar: iacute
Encoding: 237 237 151
Width: 339
VWidth: 0
Flags: HMW
LayerCount: 5
Fore
SplineSet
236 308 m 2
 172 142 l 2
 157 102 147 75 147 57 c 0
 147 43 154 36 171 36 c 3
 198 36 234 93 253 150 c 9
 283 150 l 17
 257 67 207 -8 139 -8 c 0
 91 -8 67 24 67 70 c 0
 67 91 72 116 82 142 c 2
 146 308 l 2
 161 348 171 375 171 393 c 0
 171 407 164 414 147 414 c 3
 120 414 84 357 65 300 c 9
 35 300 l 17
 61 383 111 458 179 458 c 3
 227 458 251 426 251 380 c 0
 251 359 246 334 236 308 c 2
EndSplineSet
Refer: 111 180 N 1 0 0 1 170 0 2
Validated: 1
EndChar

StartChar: icircumflex
Encoding: 238 238 152
Width: 339
VWidth: 0
Flags: HMW
LayerCount: 5
Fore
SplineSet
236 308 m 2
 172 142 l 2
 157 102 147 75 147 57 c 0
 147 43 154 36 171 36 c 3
 198 36 234 93 253 150 c 9
 283 150 l 17
 257 67 207 -8 139 -8 c 0
 91 -8 67 24 67 70 c 0
 67 91 72 116 82 142 c 2
 146 308 l 2
 161 348 171 375 171 393 c 0
 171 407 164 414 147 414 c 3
 120 414 84 357 65 300 c 9
 35 300 l 17
 61 383 111 458 179 458 c 3
 227 458 251 426 251 380 c 0
 251 359 246 334 236 308 c 2
EndSplineSet
Refer: 104 94 S 1 0 0 1 77 0 2
Validated: 1
EndChar

StartChar: idieresis
Encoding: 239 239 153
Width: 339
VWidth: 0
Flags: HMW
LayerCount: 5
Fore
SplineSet
236 308 m 2
 172 142 l 2
 157 102 147 75 147 57 c 0
 147 43 154 36 171 36 c 3
 198 36 234 93 253 150 c 9
 283 150 l 17
 257 67 207 -8 139 -8 c 0
 91 -8 67 24 67 70 c 0
 67 91 72 116 82 142 c 2
 146 308 l 2
 161 348 171 375 171 393 c 0
 171 407 164 414 147 414 c 3
 120 414 84 357 65 300 c 9
 35 300 l 17
 61 383 111 458 179 458 c 3
 227 458 251 426 251 380 c 0
 251 359 246 334 236 308 c 2
EndSplineSet
Refer: 110 168 N 1 0 0 1 80 0 2
Validated: 1
EndChar

StartChar: braceleft
Encoding: 123 123 166
Width: 674
VWidth: 0
Flags: W
HStem: -301 42<-82 55 220.644 343> -83 40<365.52 456.596> 413 51<181.82 289.679 511.239 630.5>
VStem: 17 38<208.302 247.473>
LayerCount: 5
Fore
SplineSet
739 278 m 0
 739 121 616 -83 437 -83 c 0
 386 -83 340 -63 312 -17 c 0
 308 -11 290 -14 287 -22 c 2
 220 -227 l 2
 216 -239 231 -259 243 -259 c 2
 349 -259 l 1
 343 -301 l 1
 -88 -301 l 1
 -82 -259 l 1
 55 -259 l 1
 241 314 l 2
 263 384 258 413 225 413 c 4
 188 413 101 338 55 201 c 5
 17 210 l 5
 69 376 176 464 252 464 c 7
 326 464 360 424 373 371 c 0
 375 360 398 350 410 363 c 0
 462 421 533 464 591 464 c 0
 670 464 739 393 739 278 c 0
334 120 m 2
 310 47 351 -43 409 -43 c 0
 436 -43 464 -26 488 6 c 0
 513 39 537 91 563 170 c 0
 620 346 593 409 546 409 c 0
 466 409 386 282 356 189 c 0
 349 166 334 120 334 120 c 2
EndSplineSet
Validated: 33
Layer: 2
SplineSet
252 464 m 3
 401 464 391 299 356 189 c 2
 210 -259 l 1
 349 -259 l 1
 343 -301 l 1
 -88 -301 l 1
 -82 -259 l 1
 55 -259 l 9
 241 314 l 2
 263 384 257 413 225 413 c 0
 188 413 101 338 55 201 c 1
 17 210 l 1
 69 376 176 464 252 464 c 3
362 209 m 10xd0
 337 131 l 17
 308 49 348 -43 409 -43 c 0
 436 -43 464 -26 488 6 c 0
 513 39 537 91 563 170 c 0
 620 346 593 409 546 409 c 0
 474 409 393 296 362 209 c 10xd0
352 274 m 1
 395 373 506 464 591 464 c 0
 670 464 739 393 739 278 c 0
 739 173 684 53 602 -18 c 0
 555 -59 494 -83 437 -83 c 0
 369 -83 309 -48 291 39 c 9
 352 274 l 1
EndSplineSet
Layer: 3
SplineSet
-88 -301 m 5
 -82 -259 l 5
 349 -259 l 5
 343 -301 l 5
 -88 -301 l 5
EndSplineSet
EndChar

StartChar: grave
Encoding: 96 96 167
Width: 220
VWidth: 0
Flags: W
HStem: 540 166
VStem: 0 220
LayerCount: 5
Fore
SplineSet
117 694 m 5
 140 654 188 593 220 562 c 13
 212 540 l 21
 164 566 44 652 0 686 c 13
 7 706 l 13
 117 694 l 5
EndSplineSet
Validated: 1
EndChar

StartChar: braceright
Encoding: 125 125 168
Width: 1424
VWidth: 0
Flags: HMW
LayerCount: 5
Fore
SplineSet
650 34 m 0
 679 34 716 78 744 131 c 0
 782 202 806 271 843 332 c 0
 888 407 948 464 1013 464 c 0
 1086 464 1121 424 1134 371 c 0
 1136 360 1159 350 1171 363 c 0
 1223 421 1294 464 1352 464 c 0
 1431 464 1500 393 1500 278 c 0
 1500 121 1377 -83 1198 -83 c 0
 1147 -83 1101 -63 1073 -17 c 0
 1069 -11 1051 -14 1048 -22 c 2
 982 -225 l 2
 978 -237 990 -259 1007 -259 c 2
 1110 -259 l 1
 1104 -301 l 1
 673 -301 l 1
 679 -259 l 1
 816 -259 l 1
 1002 314 l 2
 1024 384 1018 413 986 413 c 0
 946 413 909 368 879 316 c 0
 844 257 815 182 780 118 c 0
 738 42 690 -13 608 -13 c 0
 539 -12 510 55 542 138 c 2
 593 269 l 2
 631 367 636 423 609 423 c 0
 575 423 503 360 474 269 c 2
 386 0 l 1
 266 0 l 1
 354 269 l 2
 386 369 396 423 368 423 c 0
 333 423 248 342 216 246 c 2
 136 0 l 1
 16 0 l 1
 118 312 l 2
 140 382 150 418 126 418 c 0
 94 418 56 361 37 304 c 1
 7 304 l 1
 33 387 87 462 161 462 c 0
 206 462 236 435 245 393 c 0
 246 385 263 380 270 387 c 0
 312 434 357 462 395 462 c 0
 442 462 473 436 484 392 c 0
 486 383 500 377 506 384 c 0
 549 433 596 462 636 462 c 0
 719 462 752 379 710 269 c 2
 660 138 l 2
 632 65 626 35 650 34 c 0
1095 120 m 2
 1071 47 1112 -43 1170 -43 c 0
 1197 -43 1225 -26 1249 6 c 0
 1274 39 1298 91 1324 170 c 0
 1381 346 1354 409 1307 409 c 0
 1227 409 1147 282 1117 189 c 0
 1110 166 1095 120 1095 120 c 2
EndSplineSet
Validated: 33
Layer: 2
SplineSet
649 31 m 4
 678 31 718 77 746 130 c 4
 802 234 827 335 908 413 c 4
 941 445 976 464 1013 464 c 4
 1086 464 1121 424 1134 371 c 4
 1136 360 1159 350 1171 363 c 4
 1223 421 1294 464 1352 464 c 4
 1431 464 1500 393 1500 278 c 4
 1500 121 1377 -83 1198 -83 c 4
 1147 -83 1101 -63 1073 -17 c 4
 1069 -11 1051 -14 1048 -22 c 6
 982 -225 l 6
 978 -237 990 -259 1007 -259 c 6
 1110 -259 l 5
 1104 -301 l 5
 673 -301 l 5
 679 -259 l 5
 816 -259 l 5
 1002 314 l 6
 1024 384 1018 413 986 413 c 4
 970 413 951 404 932 387 c 4
 869 331 829 213 778 119 c 4
 736 43 690 -13 608 -13 c 4
 539 -12 510 55 542 138 c 6
 593 269 l 6
 631 367 636 423 609 423 c 4
 575 423 503 360 474 269 c 6
 386 0 l 5
 266 0 l 5
 354 269 l 6
 386 369 396 423 368 423 c 4
 333 423 248 342 216 246 c 6
 136 0 l 5
 16 0 l 5
 118 312 l 6
 140 382 150 418 126 418 c 4
 94 418 56 361 37 304 c 5
 7 304 l 5
 33 387 87 462 161 462 c 4
 206 462 236 435 245 393 c 4
 246 385 263 380 270 387 c 4
 312 434 357 462 395 462 c 4
 442 462 473 436 484 392 c 4
 486 383 500 377 506 384 c 4
 549 433 596 462 636 462 c 4
 719 462 752 379 710 269 c 6
 660 138 l 6
 632 65 625 32 649 31 c 4
1095 120 m 6
 1071 47 1112 -43 1170 -43 c 4
 1197 -43 1225 -26 1249 6 c 4
 1274 39 1298 91 1324 170 c 4
 1381 346 1354 409 1307 409 c 4
 1227 409 1147 282 1117 189 c 4
 1110 166 1095 120 1095 120 c 6
EndSplineSet
Layer: 3
SplineSet
673 -301 m 5
 679 -259 l 5
 1110 -259 l 5
 1104 -301 l 5
 673 -301 l 5
EndSplineSet
EndChar

StartChar: cedilla
Encoding: 184 184 169
Width: 219
VWidth: 0
Flags: W
HStem: -225 31<51.4141 136.945>
VStem: 158 61<-179.982 -89.3074>
LayerCount: 5
Fore
SplineSet
80 -85 m 1
 114 26 l 1
 144 26 l 1
 115 -62 l 1
 184 -46 219 -82 219 -124 c 0
 219 -188 165 -225 107 -225 c 0
 67 -225 24 -200 0 -169 c 1
 18 -149 l 1
 46 -181 74 -194 97 -194 c 0
 135 -194 158 -165 158 -126 c 0
 158 -95 136 -77 85 -90 c 1
 80 -85 l 1
EndSplineSet
Validated: 33
EndChar

StartChar: four
Encoding: 52 52 172
Width: 577
VWidth: 0
Flags: W
HStem: 0 35<134 235.887 355.05 447> 193 37<96 284 399 525> 660 20G<303 485>
LayerCount: 5
Fore
SplineSet
357 85 m 2
 347 50 357 35 392 35 c 2
 457 35 l 1
 447 0 l 1
 124 0 l 1
 134 35 l 1
 189 35 l 2
 224 35 243 50 253 85 c 2
 284 193 l 1
 40 193 l 1
 54 237 l 1
 168 379 269 528 337 680 c 1
 485 680 l 1
 345 474 211 372 96 230 c 1
 295 230 l 1
 331 354 l 1
 452 460 l 2
 458 465 466 466 463 455 c 2
 399 230 l 1
 537 230 l 1
 525 193 l 1
 387 193 l 1
 357 85 l 2
EndSplineSet
Validated: 33
Layer: 2
SplineSet
527 680 m 1
 357 85 l 6
 346 50 357 35 392 35 c 6
 467 35 l 5
 457 0 l 5
 134 0 l 5
 144 35 l 5
 189 35 l 6
 224 35 242 50 253 85 c 6
 367 478 l 1026
EndSplineSet
EndChar

StartChar: five
Encoding: 53 53 173
Width: 568
VWidth: 1879
Flags: HMW
LayerCount: 5
Fore
SplineSet
122 58 m 0
 122 32 176 24 208 24 c 3
 311 24 387 134 387 248 c 0
 387 319 364 373 291 373 c 0
 250 373 202 358 168 341 c 1
 148 360 l 1
 252 685 l 1
 295 677 375 672 448 672 c 0
 484 672 519 673 546 676 c 0
 547 676 548 676 549 676 c 0
 556 676 558 674 558 669 c 0
 558 667 558 665 557 662 c 0
 536 598 454 573 357 573 c 0
 325 573 291 576 257 581 c 9
 192 384 l 17
 228 403 291 410 321 410 c 0
 422 410 491 345 491 237 c 0
 491 97 371 -12 217 -12 c 3
 103 -12 30 56 30 137 c 0
 30 187 67 220 108 220 c 0
 149 220 179 190 179 149 c 0
 179 125 167 100 145 86 c 0
 129 76 122 66 122 58 c 0
EndSplineSet
Validated: 1
Layer: 2
SplineSet
89 78 m 1
 105 52 137 24 208 24 c 3
 304 24 379 134 379 248 c 0
 379 319 355 373 291 373 c 0
 250 373 202 358 168 341 c 1
 148 360 l 1
 252 685 l 1
 316.442382812 672.858398438 465.4921875 667.6953125 546 676.02734375 c 0
 559.064453125 677.37890625 560 671.662109375 556.837890625 662 c 0
 529.078125 577.174804688 391.69140625 560.278320312 257 581 c 9
 192 384 l 17
 228 403 291 410 321 410 c 0
 422 410 496 345 496 237 c 0
 496 97 371 -12 217 -12 c 3
 103 -12 30 56 30 137 c 0
 30 187 67 220 108 220 c 0
 149 220 179 190 179 149 c 0
 179 108 144 65 89 78 c 1
EndSplineSet
EndChar

StartChar: seven
Encoding: 55 55 174
Width: 520
VWidth: 1879
Flags: HMW
LayerCount: 5
Fore
SplineSet
489 555 m 1
 467 542 446 536 423 536 c 0
 361 536 325 575 272 575 c 0
 212 575 175 546 143 452 c 1
 104 452 l 1
 182 692 l 1
 221 692 l 1
 218 683 214 671 214 661 c 0
 214 653 217 647 226 647 c 0
 244 647 273 672 317 672 c 0
 379 672 388 637 461 637 c 0
 512 637 536 664 550 692 c 1
 590 692 l 1
 498 412 333 301 223 0 c 1
 85 0 l 2
 72 0 66 1 66 7 c 0
 66 11 69 17 74 26 c 0
 195 236 368 317 489 555 c 1
EndSplineSet
Validated: 1
EndChar

StartChar: eight
Encoding: 56 56 175
Width: 615
VWidth: 1879
Flags: HMW
LayerCount: 5
Fore
SplineSet
30 166 m 0
 32 266 142 339 256 365 c 1
 114 519 229 692 424 692 c 0
 530 692 615 624 615 541 c 0
 615 449 527 380 426 355 c 1
 489 303 524 256 524 185 c 0
 524 68 376 -12 256 -12 c 0
 132 -12 28 65 30 166 c 0
394 380 m 1
 591 414 563 657 418 657 c 0
 274 657 235 498 381 390 c 0
 386 387 390 383 394 380 c 1
284 338 m 1
 196 316 118 247 116 159 c 0
 114 91 159 25 256 25 c 0
 387 25 514 165 310 317 c 0
 301 324 292 331 284 338 c 1
EndSplineSet
Validated: 33
Layer: 2
SplineSet
424 692 m 4
 208 692 89 476 308 313 c 4
 512 161 387 25 256 25 c 4
 159 25 114 91 116 159 c 4
 118 266 233 345 343 345 c 4
 474 345 615 425 615 541 c 7
 615 624 530 692 424 692 c 4
30 166 m 4
 28 65 132 -12 256 -12 c 4
 376 -12 525 65 527 188 c 4
 529 274 475 326 383 394 c 4
 237 502 274 657 418 657 c 4
 574 657 595 376 346 376 c 4
 210 376 32 293 30 166 c 4
EndSplineSet
Layer: 3
SplineSet
424 692 m 4
 208 692 91 480 310 317 c 4
 514 165 387 25 256 25 c 4
 159 25 114 91 116 159 c 4
 118 266 233 345 343 345 c 4
 474 345 615 425 615 541 c 7
 615 624 530 692 424 692 c 4
30 166 m 4
 28 65 132 -12 256 -12 c 4
 376 -12 524 68 524 185 c 4
 524 271 473 322 381 390 c 4
 235 498 274 657 418 657 c 4
 574 657 595 376 346 376 c 4
 210 376 32 293 30 166 c 4
EndSplineSet
EndChar
